<svg xmlns="http://www.w3.org/2000/svg" viewBox="0 0 100 100"><defs><style>.cls-1{fill:#deb591;}.cls-2{fill:#b5845b;}.cls-3{fill:none;stroke:#deb591;stroke-miterlimit:10;stroke-width:2px;}</style></defs><title>Asset 1</title><g id="Layer_2" data-name="Layer 2"><g id="Rect"><path class="cls-1" d="M65.44,2A32.6,32.6,0,0,1,98,34.56V65.44A32.6,32.6,0,0,1,65.44,98H34.56A32.6,32.6,0,0,1,2,65.44V34.56A32.6,32.6,0,0,1,34.56,2H65.44m0-2H34.56A34.56,34.56,0,0,0,0,34.56V65.44A34.56,34.56,0,0,0,34.56,100H65.44A34.56,34.56,0,0,0,100,65.44V34.56A34.56,34.56,0,0,0,65.44,0Z"/></g><g id="Circ"><path class="cls-2" d="M50,2A48,48,0,1,1,2,50,48.05,48.05,0,0,1,50,2m0-2h0A50,50,0,0,0,0,50H0a50,50,0,0,0,50,50h0a50,50,0,0,0,50-50h0A50,50,0,0,0,50,0Z"/></g><g id="V"><path class="cls-3" d="M25.36,44.67s11,6,10.48,16.38C35.37,71,42.62,82.5,49.57,81.48c2.89-12.74-13.73-20.43-13.73-20.43-13.43-4.9-10.48-16.38-10.48-16.38C24.79,33.55,21,32,17.5,34.34,9.85,39.48,25.36,44.67,25.36,44.67Z"/><path class="cls-3" d="M75.15,45.47S73.49,57.89,63.67,61.16c-9.45,3.15-17.56,14.07-14.1,20.19,12.92-1.91,14.1-20.19,14.1-20.19-.29-14.29,11.48-15.69,11.48-15.69,10.17-4.55,10.26-8.64,6.8-11C74.39,29.13,75.15,45.47,75.15,45.47Z"/></g></g></svg>