<svg xmlns="http://www.w3.org/2000/svg" viewBox="0 0 131.31 109.87"><title>Asset 1</title><g id="Layer_2" data-name="Layer 2"><g id="Layer_1-2" data-name="Layer 1"><path d="M0,109.87V77H19.73C9.51,51.84,12.43,29.7,33,11.8,44.36,2,58.12-1.47,72.87.56c17.62,2.43,30.82,11.88,39,27.65s7.72,31.87-.32,48.5h19.8v33.16ZM2.42,79c0,9.29.05,17.51,0,25.74,0,2.48,1.26,2.8,3.29,2.8q60.12,0,120.23.07c2.64,0,3.57-1,3.55-3.48-.06-7.11-.1-14.23,0-21.34,0-2.62-1-3.51-3.54-3.47-7,.09-14,0-21,0Q76.15,79.19,47.33,79c-8.73,0-17.45,0-26.18,0ZM70.61,47.67c6.46-8.14,20.66-13.23,32.12-14.47,3.4-.37,5,.71,6,3.87,2.74,9.06,3.47,18.13.49,27.23-1.34,4.08-3,8-4.54,12.07,2.65,1.47,3.5-.46,4.29-2.11,4.61-9.56,6.65-19.54,4.84-30.16C110.18,23,94.27,7,73.63,4s-37.79,4.39-49,22.42c-9.6,15.44-9.9,31.76-1.74,48.15,1.07,2.15,2.37,3,4.6,1.93,0-.41.14-.69.05-.9a13.72,13.72,0,0,0-.94-2C19.23,61.18,19,48.3,23.67,35c.85-2.43,2.2-3.54,4.71-3.05,15.1,2.94,29.42,7.78,41,18.41,2,1.85,2.87,4.93,4.26,7.44-2.6,1-5.13,2.42-7.82,2.88-8.59,1.48-17.27,2.44-25.85,4-3,.53-6.22,1.81-6.08,5.92.09,2.86,3.74,5.87,7.43,6.28a16.8,16.8,0,0,0,1.88,0q16.88,0,33.74,0a34.66,34.66,0,0,0,3.68-.49l-14.55-5.9.2-1.46c1.52-.71,3-1.54,4.57-2.1,3.52-1.24,7.25-2,10.59-3.63,2.06-1,4.87-3.12,4.93-4.82s-2.69-3.75-4.27-5.59a3.84,3.84,0,0,0-1.32-.68Z"/><path d="M15.91,86c-.07-1.32-.15-2.9-.14-4.08h0C15.41,83,15,84.2,14.54,85.5l-1.67,4.58H12l-1.53-4.5C10,84.25,9.59,83,9.33,81.91h0c0,1.18-.1,2.76-.18,4.18l-.25,4H7.7l.66-9.44H9.92l1.61,4.56c.39,1.16.71,2.2,1,3.18h0c.24-1,.58-2,1-3.18L15.2,80.7h1.55l.59,9.44H16.15Z"/><path d="M24.92,90.14l-.09-.86h0a2.51,2.51,0,0,1-2.07,1,1.93,1.93,0,0,1-2.07-2c0-1.63,1.46-2.53,4.07-2.52v-.14a1.4,1.4,0,0,0-1.54-1.57,3.33,3.33,0,0,0-1.76.51l-.28-.81a4.15,4.15,0,0,1,2.23-.61c2.07,0,2.57,1.42,2.57,2.78v2.53A10.11,10.11,0,0,0,26,90.14Zm-.18-3.46c-1.34,0-2.87.21-2.87,1.52A1.09,1.09,0,0,0,23,89.38a1.68,1.68,0,0,0,1.64-1.13,1.4,1.4,0,0,0,.07-.4Z"/><path d="M30,90.14V84.3H29v-.94H30V83a3.15,3.15,0,0,1,.79-2.36A2.35,2.35,0,0,1,32.4,80a3.08,3.08,0,0,1,1.05.19l-.17,1A1.72,1.72,0,0,0,32.5,81c-1.05,0-1.32.93-1.32,2v.37h1.64v.94H31.18v5.84Z"/><path d="M41.52,88.29c0,.7,0,1.31,0,1.85H40.48L40.41,89h0a2.54,2.54,0,0,1-2.24,1.26c-1.07,0-2.34-.59-2.34-3v-4H37v3.75c0,1.29.4,2.16,1.52,2.16a1.79,1.79,0,0,0,1.62-1.12,1.81,1.81,0,0,0,.11-.63V83.36h1.24Z"/><path d="M45.47,85.19c0-.7,0-1.27,0-1.83h1.09l.07,1.12h0a2.48,2.48,0,0,1,2.24-1.28c.94,0,2.39.56,2.39,2.89v4H50V86.23c0-1.09-.4-2-1.57-2a1.74,1.74,0,0,0-1.65,1.26,1.64,1.64,0,0,0-.08.57v4.08H45.47Z"/><path d="M61,83.36c0,.49,0,1,0,1.86v3.94a3.89,3.89,0,0,1-1,3.09,3.57,3.57,0,0,1-2.46.81,4.33,4.33,0,0,1-2.26-.56l.31-.93a3.84,3.84,0,0,0,2,.53c1.26,0,2.18-.66,2.18-2.37V89h0a2.4,2.4,0,0,1-2.15,1.14,3,3,0,0,1-2.89-3.31c0-2.29,1.5-3.6,3.06-3.6a2.25,2.25,0,0,1,2.11,1.18h0l.05-1ZM59.73,86a2,2,0,0,0-.07-.56,1.79,1.79,0,0,0-1.72-1.3c-1.18,0-2,1-2,2.56,0,1.33.67,2.44,2,2.44a1.81,1.81,0,0,0,1.71-1.26,2.16,2.16,0,0,0,.1-.66Z"/><path d="M71,86.69a3.31,3.31,0,0,1-3.37,3.6,3.22,3.22,0,0,1-3.25-3.49,3.31,3.31,0,0,1,3.36-3.6A3.21,3.21,0,0,1,71,86.69Zm-5.38.07c0,1.49.86,2.61,2.06,2.61s2.06-1.11,2.06-2.64c0-1.15-.57-2.6-2-2.6S65.66,85.47,65.66,86.76Z"/><path d="M81,90.14,77.93,80.7h1.31l1.47,4.65c.41,1.27.76,2.42,1,3.53h0c.27-1.1.66-2.29,1.08-3.52l1.6-4.66h1.3l-3.38,9.44Z"/><path d="M91.91,90.14l-.09-.86h0a2.51,2.51,0,0,1-2.07,1,1.93,1.93,0,0,1-2.07-2c0-1.63,1.45-2.53,4.07-2.52v-.14a1.4,1.4,0,0,0-1.54-1.57,3.33,3.33,0,0,0-1.76.51l-.28-.81a4.15,4.15,0,0,1,2.23-.61c2.07,0,2.57,1.42,2.57,2.78v2.53A10.11,10.11,0,0,0,93,90.14Zm-.18-3.46c-1.34,0-2.87.21-2.87,1.52A1.09,1.09,0,0,0,90,89.38a1.68,1.68,0,0,0,1.64-1.13,1.4,1.4,0,0,0,.07-.4Z"/><path d="M96.83,80.19h1.23v10H96.83Z"/><path d="M102.05,80.19h1.23v10h-1.23Z"/><path d="M108,87a2.16,2.16,0,0,0,2.32,2.35,4.41,4.41,0,0,0,1.88-.35l.21.89a5.64,5.64,0,0,1-2.26.42,3.15,3.15,0,0,1-3.33-3.42c0-2,1.2-3.66,3.18-3.66,2.21,0,2.8,2,2.8,3.2,0,.25,0,.44,0,.57Zm3.61-.88a1.75,1.75,0,0,0-1.71-2,2,2,0,0,0-1.89,2Z"/><path d="M116.65,83.36l1.48,4c.16.45.33,1,.44,1.39h0c.12-.41.26-.92.43-1.41l1.35-4h1.3l-1.85,4.83c-.88,2.33-1.49,3.52-2.33,4.24a3.19,3.19,0,0,1-1.51.8l-.31-1a3.25,3.25,0,0,0,1.08-.61,3.64,3.64,0,0,0,1-1.37,1.1,1.1,0,0,0,.1-.29,1.09,1.09,0,0,0-.09-.33l-2.51-6.24Z"/><path d="M11.48,100.17l-1,3H9.24l3.21-9.44h1.47l3.22,9.44h-1.3l-1-3Zm3.1-1-.93-2.71c-.21-.62-.35-1.18-.49-1.73h0c-.14.56-.29,1.14-.47,1.71l-.93,2.73Z"/><path d="M27.42,102.72a9.05,9.05,0,0,1-2.9.51A4.85,4.85,0,0,1,21,102a4.85,4.85,0,0,1-1.32-3.52,4.73,4.73,0,0,1,5.11-4.87,6,6,0,0,1,2.36.43l-.3,1a4.77,4.77,0,0,0-2.09-.41A3.53,3.53,0,0,0,21,98.42a3.46,3.46,0,0,0,3.64,3.81,4,4,0,0,0,1.63-.26V99.16H24.31v-1h3.11Z"/><path d="M31.19,93.82a13.34,13.34,0,0,1,2.34-.19,3.83,3.83,0,0,1,2.73.77A2.33,2.33,0,0,1,37,96.19a2.49,2.49,0,0,1-1.78,2.41v0a2.35,2.35,0,0,1,1.38,1.91,16.15,16.15,0,0,0,.73,2.59H36.08a13.08,13.08,0,0,1-.63-2.26c-.28-1.3-.78-1.79-1.89-1.83H32.41v4.09H31.19Zm1.22,4.3h1.25c1.3,0,2.13-.71,2.13-1.79s-.89-1.75-2.17-1.77a4.76,4.76,0,0,0-1.21.12Z"/><path d="M41.86,93.7v9.44H40.64V93.7Z"/><path d="M52.5,102.83a6.06,6.06,0,0,1-2.49.45,4.41,4.41,0,0,1-4.66-4.78,4.7,4.7,0,0,1,4.93-5,5,5,0,0,1,2.24.42l-.3,1a4.33,4.33,0,0,0-1.9-.4c-2.21,0-3.69,1.42-3.69,3.9,0,2.31,1.34,3.79,3.63,3.79a4.83,4.83,0,0,0,2-.39Z"/><path d="M57.16,93.7v5.58c0,2.12.94,3,2.2,3s2.3-.93,2.3-3V93.7h1.23v5.5c0,2.9-1.53,4.09-3.57,4.09s-3.39-1.11-3.39-4V93.7Z"/><path d="M66.92,93.7h1.22v8.41h4v1H66.92Z"/><path d="M76,94.73H73.13v-1h7v1H77.24v8.41H76Z"/><path d="M84.31,93.7v5.58c0,2.12.94,3,2.2,3s2.29-.93,2.29-3V93.7H90v5.5c0,2.9-1.53,4.09-3.57,4.09s-3.39-1.11-3.39-4V93.7Z"/><path d="M94.07,93.82a13.13,13.13,0,0,1,2.33-.19,3.84,3.84,0,0,1,2.74.77,2.36,2.36,0,0,1,.74,1.79A2.49,2.49,0,0,1,98.1,98.6v0a2.35,2.35,0,0,1,1.39,1.91,15.43,15.43,0,0,0,.72,2.59H99a13.08,13.08,0,0,1-.63-2.26c-.28-1.3-.78-1.79-1.89-1.83H95.28v4.09H94.07Zm1.21,4.3h1.25c1.3,0,2.13-.71,2.13-1.79s-.88-1.75-2.17-1.77a4.76,4.76,0,0,0-1.21.12Z"/><path d="M108.4,98.71h-3.67v3.4h4.09v1h-5.31V93.7h5.1v1h-3.88v3h3.67Z"/><path d="M57.91,20c-.07-1.32-.15-2.9-.14-4.08h0C57.41,17,57,18.2,56.54,19.5l-1.67,4.58H54l-1.53-4.5c-.45-1.33-.83-2.55-1.09-3.67h0c0,1.18-.1,2.76-.18,4.18l-.25,4.05H49.7l.66-9.44h1.56l1.61,4.56c.39,1.16.71,2.2.95,3.18h0c.24-1,.58-2,1-3.18L57.2,14.7h1.55l.59,9.44H58.15Z"/><path d="M65.2,24.14,62.12,14.7h1.32l1.47,4.65c.4,1.27.75,2.42,1,3.53h0c.27-1.1.66-2.29,1.08-3.52l1.6-4.66h1.3l-3.37,9.44Z"/><path d="M73.59,21.17l-1,3H71.35l3.2-9.44H76l3.23,9.44H77.94l-1-3Zm3.09-1-.92-2.71c-.21-.62-.35-1.18-.49-1.73h0c-.14.56-.29,1.14-.48,1.71l-.92,2.73Z"/></g></g></svg>