<svg xmlns="http://www.w3.org/2000/svg" xmlns:xlink="http://www.w3.org/1999/xlink" viewBox="0 0 131.31 148.44"><defs><style>.cls-1{fill:#00a259;}</style></defs><title>Asset 4</title><g id="Layer_2" data-name="Layer 2"><g id="Layer_1-2" data-name="Layer 1"><image width="400" height="400" transform="translate(28.89 82.44) scale(0.16)" xlink:href="../../../../../TOP/Projects/Vitowe/mva/images/prep/fruit.png"/><image width="400" height="400" transform="translate(43.89 9.44) scale(0.13)" xlink:href="../../../../../TOP/Projects/Vitowe/mva/images/prep/paptree.png"/><path class="cls-1" d="M0,109.87V77H19.73C9.51,51.84,12.43,29.7,33,11.8,44.36,2,58.12-1.47,72.87.56c17.62,2.43,30.82,11.88,39,27.65s7.72,31.87-.32,48.5h19.8v33.16ZM2.42,79c0,9.29.05,17.51,0,25.74,0,2.48,1.26,2.8,3.29,2.8q60.12,0,120.23.07c2.64,0,3.57-1,3.55-3.48-.06-7.11-.1-14.23,0-21.34,0-2.62-1-3.51-3.54-3.47-7,.09-14,0-21,0Q76.15,79.19,47.33,79c-8.73,0-17.45,0-26.18,0ZM70.61,47.67c6.46-8.14,20.66-13.23,32.12-14.47,3.4-.37,5,.71,6,3.87,2.74,9.06,3.47,18.13.49,27.23-1.34,4.08-3,8-4.54,12.07,2.65,1.47,3.5-.46,4.29-2.11,4.61-9.56,6.65-19.54,4.84-30.16C110.18,23,94.27,7,73.63,4s-37.79,4.39-49,22.42c-9.6,15.44-9.9,31.76-1.74,48.15,1.07,2.15,2.37,3,4.6,1.93,0-.41.14-.69.05-.9a13.72,13.72,0,0,0-.94-2C19.23,61.18,19,48.3,23.67,35c.85-2.43,2.2-3.54,4.71-3.05,15.1,2.94,29.42,7.78,41,18.41,2,1.85,2.87,4.93,4.26,7.44-2.6,1-5.13,2.42-7.82,2.88-8.59,1.48-17.27,2.44-25.85,4-3,.53-6.22,1.81-6.08,5.92.09,2.86,3.74,5.87,7.43,6.28a16.8,16.8,0,0,0,1.88,0q16.88,0,33.74,0a34.66,34.66,0,0,0,3.68-.49l-14.55-5.9.2-1.46c1.52-.71,3-1.54,4.57-2.1,3.52-1.24,7.25-2,10.59-3.63,2.06-1,4.87-3.12,4.93-4.82s-2.69-3.75-4.27-5.59a3.84,3.84,0,0,0-1.32-.68Z"/><path class="cls-1" d="M13.68,91.05c-.08-2.44-.17-5.37-.15-7.54h0c-.34,2-.76,4.22-1.27,6.63l-1.79,8.47h-1L7.8,90.29c-.48-2.46-.89-4.71-1.17-6.78h0c0,2.17-.11,5.1-.2,7.72l-.27,7.48H4.89l.7-17.45H7.26L9,89.7c.42,2.15.77,4.07,1,5.88h.05c.25-1.76.61-3.68,1.06-5.88l1.8-8.44h1.67l.63,17.45H13.93Z"/><path class="cls-1" d="M23.32,98.71l-.1-1.58h0A2.62,2.62,0,0,1,21,99c-1.47,0-2.22-1.79-2.22-3.6,0-3,1.56-4.69,4.36-4.67v-.25c0-1-.17-2.91-1.65-2.91a2.66,2.66,0,0,0-1.89.94L19.26,87a3.25,3.25,0,0,1,2.38-1.11c2.22,0,2.76,2.62,2.76,5.13v4.69c0,1.09,0,2.15.12,3Zm-.19-6.4c-1.44,0-3.07.39-3.07,2.83,0,1.47.57,2.17,1.24,2.17.94,0,1.54-1,1.75-2.09a3.71,3.71,0,0,0,.08-.73Z"/><path class="cls-1" d="M28.72,98.71V87.91h-1V86.18h1v-.6a8.89,8.89,0,0,1,.84-4.38A2.07,2.07,0,0,1,31.33,80a2,2,0,0,1,1.12.36l-.18,1.76a1.31,1.31,0,0,0-.84-.28c-1.12,0-1.41,1.71-1.41,3.62v.68h1.76v1.73H30v10.8Z"/><path class="cls-1" d="M41.08,95.29q0,2,.06,3.42H40l-.07-2h0c-.35,1-1.11,2.33-2.4,2.33S35,97.91,35,93.51V86.18h1.32v6.94c0,2.38.42,4,1.61,4,.89,0,1.5-1.07,1.74-2.08a5.17,5.17,0,0,0,.12-1.16V86.18h1.32Z"/><path class="cls-1" d="M45.32,89.57c0-1.3,0-2.36-.06-3.39h1.17l.08,2.07h0c.35-1.19,1.19-2.36,2.39-2.36,1,0,2.57,1,2.57,5.34v7.48H50.18V91.49c0-2-.44-3.71-1.68-3.71-.87,0-1.54,1.06-1.77,2.33a5.63,5.63,0,0,0-.09,1.07v7.53H45.32Z"/><path class="cls-1" d="M61.94,86.18c0,.9-.06,1.91-.06,3.44V96.9c0,2.87-.33,4.64-1,5.72a3,3,0,0,1-2.64,1.51,3.28,3.28,0,0,1-2.41-1l.33-1.74a3,3,0,0,0,2.12,1c1.35,0,2.34-1.22,2.34-4.38v-1.4h0c-.4,1.17-1.18,2.1-2.31,2.1-1.79,0-3.08-2.64-3.08-6.11,0-4.25,1.6-6.66,3.26-6.66,1.26,0,2,1.14,2.27,2.18h0l.06-1.89Zm-1.36,4.94a5.39,5.39,0,0,0-.08-1c-.24-1.32-.88-2.41-1.84-2.41-1.26,0-2.16,1.84-2.16,4.74,0,2.46.72,4.51,2.14,4.51.81,0,1.55-.89,1.83-2.34a6.12,6.12,0,0,0,.11-1.21Z"/><path class="cls-1" d="M72.69,92.34C72.69,97,70.83,99,69.07,99c-2,0-3.47-2.49-3.47-6.45,0-4.2,1.59-6.66,3.59-6.66S72.69,88.51,72.69,92.34Zm-5.76.13c0,2.75.91,4.82,2.2,4.82s2.21-2.05,2.21-4.87c0-2.13-.62-4.82-2.18-4.82S66.93,90.09,66.93,92.47Z"/><path class="cls-1" d="M83.36,98.71l-3.3-17.45h1.41L83,89.85c.44,2.36.81,4.49,1.08,6.53h0c.29-2,.71-4.22,1.15-6.5L87,81.26h1.4L84.8,98.71Z"/><path class="cls-1" d="M95,98.71l-.1-1.58h-.05A2.62,2.62,0,0,1,92.66,99c-1.47,0-2.22-1.79-2.22-3.6,0-3,1.56-4.69,4.37-4.67v-.25c0-1-.17-2.91-1.65-2.91a2.64,2.64,0,0,0-1.89.94L91,87a3.25,3.25,0,0,1,2.38-1.11c2.22,0,2.76,2.62,2.76,5.13v4.69c0,1.09,0,2.15.12,3Zm-.19-6.4c-1.44,0-3.08.39-3.08,2.83,0,1.47.57,2.17,1.25,2.17.94,0,1.54-1,1.75-2.09a3.71,3.71,0,0,0,.08-.73Z"/><path class="cls-1" d="M100.29,80.32h1.32V98.71h-1.32Z"/><path class="cls-1" d="M105.88,80.32h1.32V98.71h-1.32Z"/><path class="cls-1" d="M112.2,92.86c0,3.08,1.17,4.35,2.49,4.35a3.11,3.11,0,0,0,2-.65l.22,1.63a3.78,3.78,0,0,1-2.41.78c-2.23,0-3.57-2.54-3.57-6.32s1.29-6.76,3.41-6.76c2.36,0,3,3.6,3,5.91,0,.46,0,.83,0,1.06Zm3.87-1.63c0-1.45-.35-3.71-1.83-3.71-1.33,0-1.92,2.13-2,3.71Z"/><path class="cls-1" d="M121.51,86.18l1.59,7.4c.16.83.34,1.82.46,2.57h0c.14-.75.29-1.71.47-2.62l1.44-7.35h1.39l-2,8.93c-.94,4.3-1.59,6.5-2.49,7.85a3.51,3.51,0,0,1-1.62,1.48l-.33-1.92a3.55,3.55,0,0,0,1.16-1.11,7.89,7.89,0,0,0,1.11-2.54,2.49,2.49,0,0,0,.1-.55,3.12,3.12,0,0,0-.09-.59l-2.68-11.55Z"/></g></g></svg>