<svg xmlns="http://www.w3.org/2000/svg" viewBox="0 0 130 111.5"><defs><style>.cls-1{fill:#e79155;}.cls-2{fill:#6dbd47;}.cls-3{fill:#add28d;}.cls-4{fill:#8ecb69;}.cls-5{fill:#dde2c7;}.cls-6{fill:#fefefd;}.cls-7{fill:#00a259;}.cls-8{fill:none;stroke:#00a259;stroke-miterlimit:10;}</style></defs><title>Asset 9</title><g id="Layer_2" data-name="Layer 2"><g id="Layer_1-2" data-name="Layer 1"><path class="cls-1" d="M71.51,28.86a5.46,5.46,0,0,0-2.54.43c-.61.2-1.51.7-1.28,1.77.08.38-.33.73-.25,1.07.3,1.26.07,2.58.44,3.83.15.54.12,1.12.25,1.69.22,1,.57,2,.84,3a9.91,9.91,0,0,0,1.1,2.18c-1.1,0-2.2,0-3.29,0a4.78,4.78,0,0,1-1.6-.08v-9a13.68,13.68,0,0,1,.23-2.47c.07-.39,0-.71-.43-.81a1.1,1.1,0,0,0-.61-.3,3,3,0,0,0-1.46-.77c-.24-.51-.76-.54-1.2-.68-.23-.08-.45-.11-.48-.4s-.43-.48-.73-.62-.59-.6-1-.77a.34.34,0,0,0-.37-.37.69.69,0,0,1-.52-.36c.09-.25-.41-.39-.13-.68.33.07.47.48.85.46,0,.1,0,.23.08.29a8.32,8.32,0,0,0,2.93,1.81,2.19,2.19,0,0,0,1.2.65c.15.39.5.34.81.36.13.15.29.12.45.1a.49.49,0,0,0,.65.47c.46-.15.44-.58.37-1l0-.25c.17-.41.53-.82,0-1.23a.3.3,0,0,0-.14-.26c0-.15-.07-.25-.14-.36l-.13-.29c0-.26-.17-.37-.33-.51a.64.64,0,0,0-.7-.34.43.43,0,0,0-.53-.24c.12-.23-.53-.36-.07-.62.23.13.47.36.71.11s0-.37-.17-.51a2.23,2.23,0,0,0-.53-1.14.45.45,0,0,0-.2-.52c.06-.4-.35-.69-.28-1.1,0-.19,0-.34-.23-.38a1.07,1.07,0,0,0-.13-.72c.29,0,.43,0,.54.38a4.09,4.09,0,0,0,.9,2c0,.15.09.29.27.2s.18-.28.16-.46a1.35,1.35,0,0,0,.29-.86.87.87,0,0,0,.23-.75l.36-.06c.13.24.33.46.22.77a4.88,4.88,0,0,0-.75,2c-.39.28-.53.56,0,.83l0,.21a3.19,3.19,0,0,0,.83,1.53l.13.25c.18.39.41.25.49,0a4.37,4.37,0,0,0,.38-1.14c0-.11.07-.22.1-.32a.87.87,0,0,0,.3-.67l.69-1.71a.26.26,0,0,0,.18-.3c.06-.19.13-.38.2-.57a.5.5,0,0,0,.27-.56l.06-.62c.17-.15.1-.33.08-.5l.15-1.37v-.38h.49v.53a1.89,1.89,0,0,0-.14,1c0,.1,0,.22.11.26s.24-.08.29-.17a5,5,0,0,0,.58-1.27c.3-.21.17-.56.27-.84s.11-.4.38-.4V18c-.08.33-.16.66-.25,1l-.27.82-.15.24c0,.1-.07.2-.11.31a.56.56,0,0,0-.22.49l-.47,1.19a.27.27,0,0,0-.15.31,2,2,0,0,0,0,.26c-.36.2-.29.61-.43.91s-.36.68,0,.88.55-.17.78-.37c.06,0,.09-.13.13-.2.64-.13,1-.66,1.35-1.1a5.12,5.12,0,0,1,.92-.88l.5-.1c-.07.58-.66.78-.92,1.22-.16,0-.36,0-.42.2-.13.43-.5.63-.77.93a4,4,0,0,0-1.29,1,1.08,1.08,0,0,0-.73.62.3.3,0,0,0-.17.25.32.32,0,0,0-.08.38l0,.25a1.39,1.39,0,0,0-.22.87c0,.12,0,.25-.05.38-.18.2-.11.47-.18.71-.13.41,0,.6.48.45a.9.9,0,0,0,.49-.26l.41-.12a.36.36,0,0,0,.34-.15.61.61,0,0,0,.45-.24c.38.26.61,0,.84-.25l.48-.15c.24,0,.48,0,.61-.23l.38-.13a.63.63,0,0,0,.65-.34l.35,0c.22,0,.45,0,.55-.25l.45-.05c.13,0,.21,0,.25-.15a.46.46,0,0,0,.42-.53l.36-.19c.35.38.68.3,1-.06a.52.52,0,0,0,.37-.24.79.79,0,0,0,.75-.37c.63-.12,1-.63,1.6-.89l.37-.15c.15.09.12.25.13.39s0,.34-.13.47c-.26,0-.55-.16-.65.24a.64.64,0,0,0-.85.35l-.11.15a1.33,1.33,0,0,0-.94.48l-.18,0a3.11,3.11,0,0,0-1.26.59l-.27.17a20.52,20.52,0,0,0-2.69,1.05c-.06,0-.08.14-.11.21s0,.3-.16.4-.37-.1-.52.07Z"/><path class="cls-2" d="M65.18,42.77a4.78,4.78,0,0,0,1.6.08c1.09,0,2.19,0,3.29,0a.07.07,0,0,1,0,.06.39.39,0,0,0,.45.33c1.63,0,3.14.64,4.75.81A2.92,2.92,0,0,1,77,44.5a1,1,0,0,0,.66.19c.31,0,.84-.07.88.47a.5.5,0,0,0,.83.41c.44-.46.83-.15,1.22-.06a3,3,0,0,1,1.37.58,12.89,12.89,0,0,0-3.81-.33c-.38,0-.75,0-1.13,0a1,1,0,0,0-.54.1c-.15.08-.3.16-.27.36s.19.24.36.28c.7.16,1.39.35,2.09.56s1,.61,1.68.54l.21,0c.17.31.63.25.75.61h-.62a.26.26,0,0,0-.39,0H80c-.24-.35-.56-.24-.87-.15l-.36,0a4.15,4.15,0,0,0-1.94-.24l-.84,0c-.09-.15-.24-.14-.38-.14H70.44c-.16,0-.34,0-.44.16l-1,0c-.15-.14-.4,0-.56-.16l.32-.31,1,0a.33.33,0,0,0,.47-.26c.06-.27-.17-.27-.35-.32a12.19,12.19,0,0,0-3.9-.21c-1.76.14-3.49.55-5.26.59-.13,0-.25,0-.29.17l-.64,0a1.51,1.51,0,0,0-1.24.19,1.27,1.27,0,0,1-.92.06c.06-.21.2-.19.31-.22.58-.16,1.16-.3,1.73-.47a14.44,14.44,0,0,1,2.59-.65c.27,0,.58-.06.58-.34s-.36-.25-.58-.26a19.53,19.53,0,0,0-4.45.29c-.42.07-.93,0-1.26.38l-2.12.32c-.13-.36.33-.34.38-.59a21.3,21.3,0,0,1,2.08-1,40.29,40.29,0,0,1,3.86-1.54,1.1,1.1,0,0,1,.78.07,1,1,0,0,0,1.12-.06,1.48,1.48,0,0,1,1.3-.3C64.4,43.27,64.7,42.73,65.18,42.77Z"/><path class="cls-3" d="M72.15,28.78c.15-.1.07-.28.16-.4.58-.08,1.33.35,1.64-.57.06-.15.3-.09.46-.08,0,.26-.11.54.25.65a.5.5,0,0,0,.53-.33c0-.16-.13-.16-.23-.22.12-.13.3-.23.28-.45a1.19,1.19,0,0,0,1.37,0c.19-.09.16-.5.51-.41s.61.32.7,0-.34-.42-.64-.48h-.06a.38.38,0,0,1-.3-.17,1.33,1.33,0,0,1,.94-.48c-.07.78.52.44.86.51s.34.18.36-.13V26c0-.06,0-.11,0-.16a5,5,0,0,0,.53.12c.16,0,.38.18.44-.11a.39.39,0,0,0-.27-.48c-.11,0-.24,0-.32-.14v-.14c.16-.13.08-.32.13-.47s.24-.13.3-.27.19-.34-.09-.45-.33.12-.34.33L79,24.4c.17-.53-.46-.19-.51-.47V23.6h.4l0,0c.38-.31.89-.14,1.3-.35.22-.12.48-.35.65.07-.18,0-.38,0-.53.12a.58.58,0,0,0,0,.88c.19.2.37.17.44-.13.29.1.29.36.08.45-.6.22-.49.69-.46,1.12,0,.62,0,.73-.62.53l-.3-.1c-.14.76-1.2.2-1.36,1a.32.32,0,0,1-.44.25c-.7-.26-.83.15-.86.7-.45-.51-.8.62-1.24,0-.11.77-.11.77.59.86a1,1,0,0,1,.21.1c-.13.14-.3.1-.46.1s-.33,0-.36.32c0,.45-.31.49-.59.13.21-.05.55,0,.34-.38s-.35-.63-.68-.48,0,.37.11.55l0,.12c-.06,0-.16,0-.18,0-.34.62-.84.34-1.31.22-.22-.05-.39-.09-.43.23s-.24.29-.51.19c-.58-.23-.93-.58-.82-1.25h.12c.14.34.09.8.62.88.13,0,.25.21.36,0a.27.27,0,0,0-.13-.37C72.23,29.24,72.07,29.08,72.15,28.78Zm1.48.63c.18.05.39.12.35-.11a.85.85,0,0,0-.73-.66c-.17,0-.36,0-.36.2C72.89,29.38,73.3,29.38,73.63,29.41Z"/><path class="cls-4" d="M80.29,47.6c-.64.07-1.12-.38-1.68-.54s-1.39-.4-2.09-.56c-.17,0-.34-.07-.36-.28s.12-.28.27-.36a1,1,0,0,1,.54-.1c.38,0,.75,0,1.13,0a12.89,12.89,0,0,1,3.81.33,3,3,0,0,0-1.37-.58c-.39-.09-.78-.4-1.22.06a.5.5,0,0,1-.83-.41c0-.54-.57-.48-.88-.47A1,1,0,0,1,77,44.5a2.92,2.92,0,0,0-1.64-.44c-1.61-.17-3.12-.82-4.75-.81a.39.39,0,0,1-.45-.33,9.1,9.1,0,0,1,2.92.39,13.6,13.6,0,0,0,1.86.35,16.05,16.05,0,0,1,3,.67c1.06.35,2.14.67,3.23,1,.76.21,1.37.75,2.11,1a.18.18,0,0,1,.14.24c0,.09-.1.11-.19.11H83c-.91-.2-1.85-.29-2.77-.46a15.53,15.53,0,0,0-3.29,0c.64.54,1.33.38,1.84.69A7,7,0,0,1,80.29,47.6Z"/><path class="cls-3" d="M56.5,46.31c.33-.42.84-.31,1.26-.38a19.53,19.53,0,0,1,4.45-.29c.22,0,.59-.1.58.26s-.31.32-.58.34a14.44,14.44,0,0,0-2.59.65c-.57.17-1.15.31-1.73.47-.11,0-.25,0-.31.22a1.27,1.27,0,0,0,.92-.06,1.51,1.51,0,0,1,1.24-.19,4.68,4.68,0,0,1-2.91.55c-.12,0-.27,0-.28-.18s.16-.14.26-.2a17.74,17.74,0,0,1,3.82-1.23c.18-.06.51,0,.43-.3s-.32-.06-.5,0a22.92,22.92,0,0,0-3.39.42A.87.87,0,0,1,56.5,46.31Z"/><path class="cls-3" d="M62.35,28.14a8.32,8.32,0,0,1-2.93-1.81c-.07-.06-.06-.19-.08-.29.27-.3.33-.47-.09-.79a9.4,9.4,0,0,1-2.26-2c.6.06.82.67,1.31.91s.77.21.92-.23.29-.6.72-.3c.09.06.28,0,.42,0,0,.21-.17.27-.24.41-.23.1-.6-.37-.71.14-.06.32.22.35.47.34.25.29.37.79.93.59a.64.64,0,0,1,.07.16c-.38,0-.82.32-1-.36,0-.17-.33-.22-.47-.05s.07.26.19.36c.28.25.35.81.92.64a.34.34,0,0,1,.07.16c0,.26.2.3.4.27.38-.08.57.15.74.43-.24.33-.3,0-.44-.11a.47.47,0,0,0-.57,0c-.11.08-.16.29-.07.31a1.73,1.73,0,0,1,.87.56c.19.19.38-.26.65-.22l.33.08a1.21,1.21,0,0,0-.16.81Z"/><path class="cls-4" d="M72.26,27.51l-.38.13c-.13-.16-.21-.41-.46-.31s-.17.34-.15.54l-.48.15c-.43-.44-.7-.3-.84.25a.61.61,0,0,1-.45.24l0-.22c.52-.18.39-.62.39-1a.44.44,0,0,0,.37-.44c0-.52.33-.43.65-.34h0c.24.3.49.57.74,0,.06-.13.2-.14.33-.12s.39,0,.44-.29.26-.22.42-.11c.37.24.61.2.72-.26,0-.17.2-.2.35-.22l.21.16c0,.12.08.23.13.35-.19.1-.51-.35-.59.12s.26.37.53.36h.06l0,.12v.22l-.45.05c-.07-.19-.2-.31-.41-.22s-.13.3-.14.47l-.35,0C72.48,26.87,72.26,27,72.26,27.51Z"/><path class="cls-3" d="M61.23,28.38c0,.29.25.32.48.4.44.14,1,.17,1.2.68l0,.17c-.24-.06-.5-.08-.65-.31s-.47-.19-.73-.18-.21,0-.21.18.11.15.22.12a.31.31,0,0,1,.43.24c.07.3.28.34.51.48.38.24.66.63,1.19.4,0,.05.07.11.06.15-.08.31.12.29.32.29a.46.46,0,0,0,.44-.17c.15-.24-.1-.31-.2-.45l.12-.15a1.1,1.1,0,0,1,.61.3c-.12.58-.61.73-1.07.91-.12,0-.28.08-.35,0A.89.89,0,0,0,62.7,31c-.19,0-.17-.2-.21-.34s-.17-.31-.36-.19c-.39.24-.49.05-.48-.29s-.09-.33-.33-.42c-.44-.16-.77-.53-1.26-.68-.31-.09-.74.14-1-.28a2.79,2.79,0,0,1,1.28.17c.37.14.62,0,.6-.41A.25.25,0,0,1,61.23,28.38Z"/><path class="cls-3" d="M64.44,22.76a4.09,4.09,0,0,1-.9-2c-.11-.36-.25-.42-.54-.38-.45,0-.36-.38-.37-.67l.19-.23c.16-.17.27-.38.1-.59s-.32.14-.5.12c-.25-.26,0-.49.06-.7s.22,0,.31.07c.53.54.43,0,.48-.28.5.42.57,1.13,1,1.58a.21.21,0,0,1,0,.21c-.32.29,0,.46.11.67-.63.23-.55.62-.23,1.06a1.94,1.94,0,0,1,.29.53c0,.1.17.11.27.08s.13-.13.07-.24c-.29-.56.19-.3.38-.35a1.35,1.35,0,0,1-.29.86A.36.36,0,0,0,64.44,22.76Zm-1.09-4c-.16.16-.1.37-.1.56s0,.36.26.35a.24.24,0,0,0,.2-.36C63.63,19.15,63.69,18.86,63.35,18.79Z"/><path class="cls-4" d="M62.63,19.71c0,.29-.08.63.37.67a1.07,1.07,0,0,1,.13.72c0,.18-.05.38.23.38-.07.41.34.7.28,1.1A.62.62,0,0,1,63,22.5a1.49,1.49,0,0,0-.62-.78.22.22,0,0,0-.14-.22l.14-.25c.32-.08.34-.21.08-.4l-.19-.09a4,4,0,0,0-.2-1A2.15,2.15,0,0,1,62,17.75a1,1,0,0,1,1.27.35c-.05.28,0,.82-.48.28-.09-.1-.26-.17-.31-.07s-.31.44-.07.7S62.2,19.58,62.63,19.71Z"/><path class="cls-3" d="M60.38,47.3c0-.16.16-.17.29-.17,1.77,0,3.5-.45,5.26-.59a12.19,12.19,0,0,1,3.9.21c.18,0,.41,0,.35.32a.33.33,0,0,1-.47.26c.08-.21.13-.44-.2-.45a32.27,32.27,0,0,0-4.29,0,30.6,30.6,0,0,1-4.67.43A.49.49,0,0,1,60.38,47.3Z"/><path class="cls-4" d="M58.62,26.26a.69.69,0,0,0,.52.36.34.34,0,0,1,.37.37c0,.3,0,.56.34.66.18.05.14.22.15.35h0c-.22,0-.48.08-.66-.11-.46-.52-1.13-.82-1.53-1.41l0,0-.15-.19a.48.48,0,0,0-.23-.34.45.45,0,0,0-.3-.3l-.2-.19a.24.24,0,0,0-.27-.17c-.09-.16-.17-.32-.26-.47a1.47,1.47,0,0,0-.51-1l0-.38c.66-.05.36.57.57.82A11.57,11.57,0,0,0,58.62,26.26Z"/><path class="cls-4" d="M60.88,25.24a.64.64,0,0,0-.07-.16c-.56.2-.68-.3-.93-.59.13-.13.29-.25.24-.48s.29-.2.24-.41l.11-.12,1,.16h0c0,.19.07.39-.06.55s-.2.22,0,.36a.36.36,0,0,0,.36.05c.15-.05.25-.16.19-.33-.15-.42.13-.4.39-.38a.45.45,0,0,1,.06.36c-.3.21,0,.42,0,.64l0,.28-.34.26c-.22,0-.47-.14-.63.14A.61.61,0,0,1,60.88,25.24Z"/><path class="cls-3" d="M72.65,21.77l-.5.1c-.05-.3-.24-.39-.52-.37,0-.08,0-.16,0-.23.77.12.6-.51.72-.9,0-.21.1-.41-.08-.59a.33.33,0,0,1-.07-.4c.15-.33.32-.33.68-.23s-.09-.59.34-.61.48.22.5.51c0,.51.27.55.65.33v.51a3.4,3.4,0,0,1-1,.63c-.33,0-.21-.25-.18-.44.08-.39,0-.64-.48-.59l-.15-.09,0,.05.17.07c.11.41-.3.82,0,1.23-.2.3-.06.6,0,.89Z"/><path class="cls-4" d="M72.65,21.77l.12-.13c.54.24.56-.46.94-.53.14,0,.25,0,.27-.17a.83.83,0,0,1,.33-.67c.15-.12.24-.22.07-.38v-.51c.48.16.74.57.45.89s-.25.68-.46,1c-.17,0-.3.06-.15.26l-.1.24a7,7,0,0,0-1.39,1.38c-.71.45-.81.44-1-.13C72,22.55,72.58,22.35,72.65,21.77Z"/><path class="cls-4" d="M65.22,23.58a4.88,4.88,0,0,1,.75-2l.41,0h0l.06.4-.06.23c-.16.11-.13.25-.08.39l-.2.71c-.13,0-.23.1-.2.25s.14.14.25.11a.35.35,0,0,0,.11,0l.06.28c0,.14-.13.31,0,.38s.47.25.37.58a.78.78,0,0,1-.73.55c-.23-.32,0-1-.74-.91l0-.21C65.37,24.13,65.73,23.85,65.22,23.58Z"/><path class="cls-3" d="M65.75,20.83l-.36.06c0-.17.06-.34.11-.6-.15.14-.26.23-.4.2a1.51,1.51,0,0,1,.35-1c.12.14-.08.57.27.44s.15-.5.15-.77S65.63,19,65.5,19c-.07-.44.22-.79.34-1.17s.42-.18.65-.2.3,0,.4.26a1.38,1.38,0,0,1-.09,1.52,1.29,1.29,0,0,1,0-.73c0-.13.07-.25-.1-.29a.23.23,0,0,0-.32.2l-.12,1.09v.61l0,.36C66,20.64,65.82,20.54,65.75,20.83Z"/><path class="cls-4" d="M75.77,22.29c.25,0,.57,0,.63.29s-.26.38-.44.53-.23.17-.35.25c-.73.13-1.34.68-2.12.63-.21-.19-.07-.34.07-.5s.26-.22,0-.37c0-.28.13-.4.4-.41.09.16.08.38.33.54l.06-.72Z"/><path class="cls-3" d="M71.12,18v-.63c.21-.33,0-.61-.12-.89a1.09,1.09,0,0,0-.25-.82.75.75,0,0,0-.29.48c-.42-.16,0-.45-.1-.66s-.12-.59.25-.58a.66.66,0,0,1,.75.48,10.53,10.53,0,0,0,.41,1,1.88,1.88,0,0,1-.12,1.47Z"/><path class="cls-3" d="M58.62,26.26a11.57,11.57,0,0,1-2.18-2.07c-.21-.25.09-.87-.57-.82.26-.21.48-.54.89-.28-.12.19-.17.42,0,.56.37.29.62.71,1,1s.75.41.72.91C58.21,25.87,58.71,26,58.62,26.26Z"/><path class="cls-3" d="M57.81,26.48c.4.59,1.07.89,1.53,1.41.18.19.44.08.66.11-.06.4-.38.25-.59.24s-.46.14-.4.46a1.25,1.25,0,0,1-1.18-.33c-.4-.47-.39-.62.2-.87l.44-.22C57.68,27.3,57.72,26.9,57.81,26.48Zm.36,1.27c-.15,0-.3,0-.27.23a.36.36,0,0,0,.3.34c.23,0,.21-.22.24-.36S58.31,27.76,58.17,27.75Z"/><path class="cls-3" d="M73.6,23.12c.22.15.06.26,0,.37s-.28.31-.07.5c0,.46-.22.31-.45.23a.51.51,0,0,0-.41-.24c-.5-.14-1-.32-1.42.16l-.67,0c.27-.29.64-.49.77-.92.06-.18.26-.18.42-.2.19.57.29.58,1,.13C73,23.65,73.31,23.14,73.6,23.12Z"/><path class="cls-4" d="M66.22,20.65l0-.36c.37-.1.62-.41,1-.58a.58.58,0,0,1,.69.08c.22.21,0,.38-.13.52a.41.41,0,0,0-.1.46c.16.37-.13.45-.35.6a.43.43,0,0,1-.69-.12V21c.16,0,.31-.14.19-.3s-.38.05-.57,0Z"/><path class="cls-4" d="M58.49,25.58c0-.5-.45-.67-.72-.91s-.61-.73-1-1c-.2-.14-.15-.37,0-.56l.23.15a9.4,9.4,0,0,0,2.26,2c.42.32.36.49.09.79C59,26.06,58.82,25.65,58.49,25.58Z"/><path class="cls-4" d="M63.83,24.64c-.46.26.19.39.07.62-.27.72-.92.43-1.42.54v-.43a.4.4,0,0,0,.38-.5L63,24.4l0,0,.09-.13.15-.25c.06,0,.16-.07.16-.11s-.11-.12-.21-.11h0c.09-.27.27-.55.49-.2a1.52,1.52,0,0,1,.33.7Z"/><path class="cls-4" d="M69.63,18.78v-.53c0-.32.11-.64.15-1s.25-.41-.07-.52-.44,0-.47.31a.16.16,0,0,1-.23.14.19.19,0,0,1-.09-.26c0-.12.11-.23,0-.33l0-.24a.23.23,0,0,0,.21-.23h.25c.22.24.41,0,.62,0-.15.41.35.6.34.91a13.81,13.81,0,0,1-.23,1.57A.77.77,0,0,1,69.63,18.78Z"/><path class="cls-5" d="M70.11,18.6A13.81,13.81,0,0,0,70.34,17c0-.31-.49-.5-.34-.91.1-.19-.09-.09-.14-.14a.63.63,0,0,1,.5-.49c.07.21-.32.5.1.66h0l.13.24c.1.14.24.13.39.1.13.28.33.56.12.89-.27,0-.3.19-.38.4s0,.63-.27.84Z"/><path class="cls-5" d="M71.21,24.14c.42-.48.92-.3,1.42-.16-.12.17-.29.14-.45.13-.37,0-.62.05-.56.5,0,.09,0,.27-.06.28-.59.16-.85.85-1.49.93-.12,0-.31.06-.35,0-.38-.52-.8-.14-1.2-.07a1.08,1.08,0,0,1,.73-.62c.68.53.84.52,1.42-.08a.92.92,0,0,1,.35-.24C71.42,24.67,71.37,24.43,71.21,24.14Z"/><path class="cls-4" d="M76.65,25.66a.52.52,0,0,1-.37.24l-.21-.2c.15-.38.3-.76.46-1.14.07-.16.08-.28-.14-.29l-.27-.15v-.24c.16,0,.33,0,.39-.2.28-.13.41-.66.87-.31l0,.26c-.13,0-.28.05-.17.25s0,.33,0,.5Z"/><path class="cls-3" d="M68.89,16.63c.13.1.06.21,0,.33a.19.19,0,0,0,.09.26.16.16,0,0,0,.23-.14c0-.31.22-.39.47-.31s.09.34.07.52-.1.64-.15,1h-.49c-.26-.26-.4.12-.61.13A2.51,2.51,0,0,1,68.89,16.63Z"/><path class="cls-3" d="M70,47.79c.1-.18.28-.16.44-.16h5.18c.14,0,.29,0,.38.14-.25.17-.53.08-.79.08H70.54C70.36,47.86,70.17,47.92,70,47.79Z"/><path class="cls-3" d="M76.12,24.12l.27.15a6.27,6.27,0,0,0-.74,1.15s-.1.06-.15.1c-.33,0-.22.26-.21.44l-.36.19c-.28-.1-.28-.36-.35-.59s.5-.23.39-.58a1.69,1.69,0,0,1,0-.23C75.45,24.7,75.68,24.22,76.12,24.12Z"/><path class="cls-5" d="M73.6,23.12c-.29,0-.58.53-.87,0a7,7,0,0,1,1.39-1.38c0,.32,0,.57.47.45a1.25,1.25,0,0,1,1.18.1l-1.38.24a.33.33,0,0,0-.39.18C73.73,22.72,73.59,22.84,73.6,23.12Z"/><path class="cls-4" d="M76.37,29.11a1,1,0,0,0-.21-.1c-.7-.09-.7-.09-.59-.86.44.61.79-.52,1.24,0l.34.08c0,.19,0,.28.25.25h0c0,.13,0,.26,0,.38l-.25,0c-.31-.22-.36.1-.49.24Z"/><path class="cls-4" d="M65.1,20.49c.14,0,.25-.06.4-.2,0,.26-.08.43-.11.6a.87.87,0,0,1-.23.75c-.19.05-.67-.21-.38.35.06.11.07.2-.07.24s-.24,0-.27-.08a1.94,1.94,0,0,0-.29-.53c-.32-.44-.4-.83.23-1.06.14.06.16.17.15.31-.17.12-.22.28,0,.35s.49.12.43-.28A.47.47,0,0,1,65.1,20.49Z"/><path class="cls-5" d="M73,24.22c.23.08.49.23.45-.23.78.05,1.39-.5,2.12-.63-.13.58-.73.5-1.09.75s-.64.16-.44.66c.09.23-.12.4-.38.25S73,24.66,73,24.22Z"/><path class="cls-3" d="M68.75,47.35l-.32.31c.16.2.41,0,.56.16-.1.31-.36.28-.61.29H67c-.12,0-.26,0-.29-.16a.2.2,0,0,1,.07-.15A15.39,15.39,0,0,1,68.75,47.35Z"/><path class="cls-4" d="M59,28.7c-.06-.32.06-.46.4-.46s.53.16.59-.24h0l.44.13c.06.3.29.37.55.39,0,.45-.23.55-.6.41a2.79,2.79,0,0,0-1.28-.17A.21.21,0,0,1,59,28.7Z"/><path class="cls-5" d="M73.88,25.5c-.15,0-.31.05-.35.22-.11.46-.35.5-.72.26-.16-.11-.37-.19-.42.11s-.21.32-.44.29-.27,0-.33.12c-.25.57-.5.3-.74,0,.19,0,.42.08.5-.21a.32.32,0,0,1,.48-.23c.15.06.24,0,.27-.14s0,0,0-.06c.29-.43.58-.12.91-.06s.16-.73.7-.5C73.81,25.33,73.84,25.43,73.88,25.5Z"/><path class="cls-3" d="M62,17.75a2.15,2.15,0,0,0,.07,2.06,4,4,0,0,1,.2,1c-.2.11-.29,0-.35-.18a5.28,5.28,0,0,0-.45-1.43C61.25,18.79,61.62,18,62,17.75Z"/><path class="cls-5" d="M69.88,23.85c0,.07-.07.16-.13.2-.23.2-.57.5-.78.37s-.09-.59,0-.88.07-.71.43-.91H70l0,0C69.37,23,69.42,23.39,69.88,23.85Z"/><path class="cls-5" d="M70.88,26.5c-.32-.09-.63-.18-.65.34a.44.44,0,0,1-.37.44c-.15-.05-.24,0-.28.17-.27.24-.56.48-.12.83h0l0,.22a.36.36,0,0,1-.34.15,1.65,1.65,0,0,1,.14-1.4c.13-.18.13-.44.47-.32s.23-.16.23-.31,0-.46.34-.49S70.84,26.16,70.88,26.5Z"/><path class="cls-4" d="M71.63,21.5c.28,0,.47.07.52.37a5.12,5.12,0,0,0-.92.88c-.3-.11-.6.26-1,0,.27-.17.59-.27.51-.63a.38.38,0,0,1,.1,0,.22.22,0,0,0,.29-.2l.1,0c.19,0,.34-.06.37-.28A.1.1,0,0,1,71.63,21.5Z"/><path class="cls-4" d="M78.49,23.93c.05.28.68-.06.51.47-.56.26-1,.77-1.6.89-.27-.6.43-.59.58-.92Z"/><path class="cls-3" d="M69.12,18.63,69,20h-.22c-.76-.38-.8-.56-.3-1.43,0,.29.07.58.11.89C69,19.28,68.69,18.73,69.12,18.63Z"/><path class="cls-3" d="M70.6,19.83l.27-.82.66,0c-.11.29.14.54.08.82a.25.25,0,0,0-.23.13h-.63Z"/><path class="cls-5" d="M75,25c.11.35-.5.2-.39.58s.07.49.35.59a.46.46,0,0,1-.42.53l-.25-.07,0-.12V26c0-.12-.09-.23-.13-.35.15,0,.28-.09.29-.27C74.4,25,74.7,25,75,25Z"/><path class="cls-3" d="M62.33,23.89c-.26,0-.54,0-.39.38.06.17,0,.28-.19.33a.36.36,0,0,1-.36-.05c-.16-.14-.06-.24,0-.36s.06-.36.06-.55a.74.74,0,0,0,.54-.08c.11-.07.24-.24.36-.08S62.36,23.75,62.33,23.89Z"/><path class="cls-3" d="M64,24.28a1.52,1.52,0,0,0-.33-.7c-.22-.35-.4-.07-.49.2-.42-.17-.23-.4-.06-.63l.68,0a2.23,2.23,0,0,1,.53,1.14Z"/><path class="cls-5" d="M78,24.37c-.15.33-.85.32-.58.92a.79.79,0,0,1-.75.37l.54-1.28Z"/><path class="cls-4" d="M71.53,19l-.66,0c.09-.34.17-.67.25-1l.53-.15a.31.31,0,0,1,.1.51c-.4.12-.2.42-.21.66Z"/><path class="cls-5" d="M65.26,24.62c.79-.13.51.59.74.91l.09.62A3.19,3.19,0,0,1,65.26,24.62Z"/><path class="cls-3" d="M76.84,47.8a4.15,4.15,0,0,1,1.94.24C78.12,48.07,77.42,48.38,76.84,47.8Z"/><path class="cls-2" d="M66.26,19.68l.12-1.09a.23.23,0,0,1,.32-.2c.17,0,.14.16.1.29a1.29,1.29,0,0,0,0,.73C66.7,19.67,66.48,19.67,66.26,19.68Z"/><path class="cls-4" d="M54.76,46c0,.25-.51.23-.38.59-.06.22-.2.25-.39.19,0-.54-.35-.11-.51-.22A1.54,1.54,0,0,1,54.76,46Z"/><path class="cls-4" d="M69.12,18.63c-.43.1-.15.65-.56.83,0-.31-.07-.6-.11-.89,0-.06,0-.12.07-.19.21,0,.35-.39.61-.13C69.13,18.38,69.13,18.5,69.12,18.63Z"/><path class="cls-5" d="M76.12,24.12c-.44.1-.67.58-1.14.63,0-.49.53-.49.68-.84.06-.14.29-.21.44-.31l0,0v.48Z"/><path class="cls-4" d="M74.76,29.47l0-.12c-.06-.18-.42-.41-.11-.55s.54.25.68.48-.13.33-.34.38Z"/><path class="cls-5" d="M66.22,20.65l0,.11c0,.27.21.23.38.26v.23c-.25,0-.25.19-.24.37l-.41,0c.11-.31-.09-.53-.22-.77C65.82,20.54,66,20.64,66.22,20.65Z"/><path class="cls-2" d="M80.77,24.24c-.07.3-.25.33-.44.13a.58.58,0,0,1,0-.88c.15-.16.35-.1.53-.12v.13a.23.23,0,0,0-.16.2l0,0c-.36.22-.22.38.06.52Z"/><path class="cls-5" d="M70.85,22.1a.38.38,0,0,0-.1,0l-.72.52,0,0a1.16,1.16,0,0,1,1.25-1v.21l-.1,0A.24.24,0,0,0,70.85,22.1Z"/><path class="cls-5" d="M68.75,28.78a.9.9,0,0,1-.49.26c-.44.15-.61,0-.48-.45.07-.24,0-.51.18-.71.05,0,.11.07.13.12.13.27-.19.55,0,.78S68.52,28.44,68.75,28.78Z"/><path class="cls-5" d="M77.39,23.37c-.46-.35-.59.18-.87.31l-.38,0,0,0a4.78,4.78,0,0,1,.72-.63C77.1,22.73,77.36,23,77.39,23.37Z"/><path class="cls-4" d="M81.25,48.23c-.12-.36-.58-.3-.75-.61.4-.13.68.27,1.07.25.08,0,.14.15.1.25S81.4,48.24,81.25,48.23Z"/><path class="cls-5" d="M63.84,23.1l-.68,0c.07-.25-.41-.36-.16-.65a.62.62,0,0,0,.64.08A.45.45,0,0,1,63.84,23.1Z"/><path class="cls-5" d="M67.09,25.25a4.37,4.37,0,0,1-.38,1.14c-.08.26-.31.4-.49,0,.27,0,.37-.19.43-.45S66.77,25.37,67.09,25.25Z"/><path class="cls-4" d="M65.5,19c.13,0,.36-.19.37.12s.15.67-.15.77-.15-.3-.27-.44S65.48,19.15,65.5,19Z"/><path class="cls-3" d="M63,24.4c0,.15-.09.31-.14.47l-.48,0c0-.22-.3-.43,0-.64A.69.69,0,0,0,63,24.4Z"/><path class="cls-5" d="M72.36,20.37c-.12.39,0,1-.72.9C71.91,21,72,20.58,72.36,20.37Z"/><path class="cls-3" d="M55.85,23.75a1.47,1.47,0,0,1,.51,1A1,1,0,0,1,55.85,23.75Z"/><path class="cls-3" d="M61.48,23.64l-1-.16C60.91,22.85,61.17,23.45,61.48,23.64Z"/><path class="cls-5" d="M68,27.5a1.39,1.39,0,0,1,.22-.87C68.49,27,68.33,27.27,68,27.5Z"/><path class="cls-3" d="M79.14,48.07c.31-.09.63-.2.87.15C79.71,48.22,79.38,48.39,79.14,48.07Z"/><path class="cls-3" d="M65,20.94c.06.4-.23.34-.43.28s-.17-.23,0-.35A.38.38,0,0,0,65,20.94Z"/><path class="cls-3" d="M76.63,29.11c.13-.14.18-.46.49-.24C77,29,76.92,29.29,76.63,29.11Z"/><path class="cls-2" d="M53.48,46.6c.16.11.54-.32.51.22l-.48,0,0-.23Z"/><path class="cls-3" d="M71.54,19c0-.24-.19-.54.21-.66C71.74,18.61,71.89,18.9,71.54,19Z"/><path class="cls-5" d="M67.49,24.26a.87.87,0,0,1-.3.67C67.17,24.65,67.15,24.37,67.49,24.26Z"/><path class="cls-3" d="M69.86,16c0,.05.24-.05.14.14-.21,0-.4.27-.62,0C69.48,15.92,69.71,16.05,69.86,16Z"/><path class="cls-5" d="M68.83,21.12a.5.5,0,0,1-.27.56A.42.42,0,0,1,68.83,21.12Z"/><path class="cls-5" d="M70.12,20.87a.56.56,0,0,1,.22-.49C70.58,20.68,70.38,20.79,70.12,20.87Z"/><path class="cls-5" d="M68.75,20H69c0,.17.09.35-.08.5C68.69,20.37,68.78,20.17,68.75,20Z"/><path class="cls-3" d="M80.76,24.24c-.28-.14-.42-.3-.06-.52Z"/><path class="cls-3" d="M57.09,25.61a.45.45,0,0,1,.3.3Q57,26,57.09,25.61Z"/><path class="cls-5" d="M66.15,23.71c-.11,0-.22,0-.25-.11s.07-.22.2-.25S66.13,23.59,66.15,23.71Z"/><path class="cls-5" d="M78.89,23.6h-.4C78.62,23.29,78.75,23.3,78.89,23.6Z"/><path class="cls-5" d="M66.3,22.64c0-.14-.08-.28.08-.39C66.57,22.42,66.53,22.55,66.3,22.64Z"/><path class="cls-5" d="M68.27,26.38a.32.32,0,0,1,.08-.38C68.56,26.18,68.53,26.3,68.27,26.38Z"/><path class="cls-5" d="M66.44,22l-.06-.4C66.71,21.71,66.71,21.85,66.44,22Z"/><path class="cls-3" d="M62.46,20.85c.26.19.24.32-.08.4Z"/><path class="cls-3" d="M77.37,28.85c0-.12,0-.25,0-.38C77.66,28.63,77.59,28.75,77.37,28.85Z"/><path class="cls-3" d="M71.24,21.87v-.21l.36-.07C71.58,21.81,71.43,21.87,71.24,21.87Z"/><path class="cls-3" d="M57.62,26.25l.15.19C57.6,26.47,57.51,26.44,57.62,26.25Z"/><path class="cls-3" d="M77.4,28.47c-.2,0-.27-.06-.25-.25A.37.37,0,0,1,77.4,28.47Z"/><path class="cls-5" d="M77.2,23.88c-.11-.2,0-.23.17-.25A.23.23,0,0,1,77.2,23.88Z"/><path class="cls-3" d="M56.62,25.25a.24.24,0,0,1,.27.17C56.72,25.5,56.63,25.44,56.62,25.25Z"/><path class="cls-3" d="M63.22,23.78c.1,0,.21,0,.21.11s-.1.08-.16.11Z"/><path class="cls-5" d="M71.38,20a.25.25,0,0,1,.23-.13C71.61,20,71.58,20.16,71.38,20Z"/><path class="cls-5" d="M68.36,22.25a.26.26,0,0,1-.18.3Q68.07,22.3,68.36,22.25Z"/><path class="cls-5" d="M69.5,22.37a.27.27,0,0,1,.15-.31C69.76,22.24,69.71,22.34,69.5,22.37Z"/><path class="cls-5" d="M66.32,24l-.06-.28C66.5,23.79,66.55,23.88,66.32,24Z"/><path class="cls-5" d="M70.6,19.83l.15.15a.21.21,0,0,1-.3.09Z"/><path class="cls-3" d="M69.13,16.16a.23.23,0,0,1-.21.23C68.86,16.19,69,16.13,69.13,16.16Z"/><path class="cls-3" d="M80.72,23.7a.23.23,0,0,1,.16-.2C81,23.69,80.91,23.74,80.72,23.7Z"/><path class="cls-3" d="M62.24,21.5a.22.22,0,0,1,.14.22C62.22,21.72,62.12,21.68,62.24,21.5Z"/><path class="cls-5" d="M74.22,21.5c-.15-.2,0-.24.15-.26C74.37,21.36,74.34,21.46,74.22,21.5Z"/><path class="cls-3" d="M80.24,48.23a.26.26,0,0,1,.39,0Z"/><path class="cls-4" d="M53.48,46.61l0,.23C53.31,46.78,53.36,46.7,53.48,46.61Z"/><path class="cls-3" d="M63.12,24.25l-.09.13Z"/><path class="cls-6" d="M62.49,25.37c0,.14,0,.29,0,.43.35.42.81.11,1.22.2a.48.48,0,0,0,.28.39.27.27,0,0,0,.27.11l-.09.35c-.21.13-.18.22,0,.3l.31,0c.24.11.46.17.64-.09l.21-.11.37,0a.3.3,0,0,1,.14.26c0,.41-.18.82,0,1.23l0,.25c-.18,0-.17.2-.21.33-.13.47-.35.61-.67.14l.37-.44a.51.51,0,0,0,.05-.79c-.14-.18-.39-.19-.51.11l-.19.09a.29.29,0,0,1-.24-.29c0-.47-.26-.52-.69-.19l-.35.08-.19,0,.07-.5c.1-.08.11-.18,0-.22a.37.37,0,0,0-.53.21l-.21.08-.33-.08c0-.32,0-.58-.44-.55-.17-.28-.36-.51-.74-.43-.2,0-.38,0-.4-.27a.34.34,0,0,0-.07-.16c-.57.17-.64-.39-.92-.64-.12-.1-.35-.16-.19-.36s.44-.12.47.05c.15.68.59.4,1,.36a.61.61,0,0,0,.51.33c.24.08.48.18.63-.14l.34-.26Z"/><path class="cls-4" d="M71.21,24.14c.16.29.21.53-.19.67a.92.92,0,0,0-.35.24c-.58.6-.74.61-1.42.08a4,4,0,0,1,1.29-1Z"/><path class="cls-4" d="M64.16,26.85l.09-.35c.08-.05.11-.13,0-.18a.21.21,0,0,0-.3.07A.48.48,0,0,1,63.7,26l.73-.5a.64.64,0,0,1,.7.34c-.22.07-.42.25-.3.45s.41.06.63.06c0,.1.09.19.13.29a.46.46,0,0,0-.23.34l-.21.11c-.22-.05-.46-.16-.64.09l-.31,0C64.18,27.05,64.17,27,64.16,26.85Z"/><path class="cls-3" d="M70,22.65l.72-.52c.08.36-.24.46-.51.63.39.25.69-.12,1,0-.39.44-.71,1-1.35,1.1C69.42,23.39,69.37,23,70,22.65Z"/><path class="cls-6" d="M74.41,27.73c-.16,0-.4-.07-.46.08-.31.92-1.06.49-1.64.57,0-.07,0-.19.11-.21a20.52,20.52,0,0,1,2.69-1.05c0,.1,0,.21.13.26,0,.22-.16.32-.28.45l-.22,0C74.66,27.73,74.53,27.75,74.41,27.73Z"/><path class="cls-4" d="M75.24,27.38c-.1-.05-.11-.16-.13-.26l.27-.17,1,0c.4,0,.26-.27.28-.47l0-.14.18,0a.38.38,0,0,0,.3.17V27c-.35-.09-.32.32-.51.41A1.19,1.19,0,0,1,75.24,27.38Z"/><path class="cls-6" d="M70.11,18.6l.36,0a5,5,0,0,1-.58,1.27c0,.09-.14.22-.29.17s-.11-.16-.11-.26a1.89,1.89,0,0,1,.14-1A.77.77,0,0,0,70.11,18.6Z"/><path class="cls-5" d="M63.74,27.7c.43-.33.66-.28.69.19a.29.29,0,0,0,.24.29,1.12,1.12,0,0,0-.31,1c-.31,0-.66,0-.81-.36l.09-.27a.65.65,0,0,0,.56-.58C64.23,27.6,63.87,27.84,63.74,27.7Z"/><path class="cls-4" d="M64.36,29.15a1.12,1.12,0,0,1,.31-1l.19-.09c.52,0,.36.42.46.68l-.37.44-.14,0C64.65,29.27,64.49,29.3,64.36,29.15Z"/><path class="cls-5" d="M62.87,29.63l0-.17a3,3,0,0,1,1.46.77l-.12.15c-.22,0-.45.06-.51-.25L63.63,30C63.21,30.21,63,30.07,62.87,29.63Z"/><path class="cls-5" d="M64.43,25.5l-.73.5c-.41-.09-.87.22-1.22-.2.5-.11,1.15.18,1.42-.54A.43.43,0,0,1,64.43,25.5Z"/><path class="cls-3" d="M63.64,28.52l-.09.27a2.19,2.19,0,0,1-1.2-.65h0c.33,0,.53-.31.83-.38l.19,0C63.35,28.06,63,28.46,63.64,28.52Z"/><path class="cls-2" d="M72.15,28.78c-.08.3.08.46.33.58a.27.27,0,0,1,.13.37c-.11.21-.23,0-.36,0-.53-.08-.48-.54-.62-.88C71.78,28.68,72,28.75,72.15,28.78Z"/><path class="cls-2" d="M78.62,26.36c-.34-.07-.93.27-.86-.51l.11-.15a1.25,1.25,0,0,0,.76.19c.08.13.22.11.35.13v.21C78.85,26.25,78.71,26.23,78.62,26.36Z"/><path class="cls-3" d="M60.44,28.13,60,28c0-.13,0-.3-.15-.35-.37-.1-.38-.36-.34-.66.4.17.64.53,1,.77Z"/><path class="cls-5" d="M75.29,26c0-.18-.12-.42.21-.44.12.26.33.26.57.18l.21.2C76,26.26,75.64,26.34,75.29,26Z"/><path class="cls-5" d="M64.81,29.25l.14,0c.32.47.54.33.67-.14,0-.13,0-.29.21-.33.07.4.09.83-.37,1A.49.49,0,0,1,64.81,29.25Z"/><path class="cls-5" d="M76.64,26.36l0,.14c-.21.08-.23.28-.28.47l-1,0A3.11,3.11,0,0,1,76.64,26.36Z"/><path class="cls-5" d="M78.63,25.89a1.25,1.25,0,0,1-.76-.19.64.64,0,0,1,.85-.35A.78.78,0,0,1,78.63,25.89Z"/><path class="cls-5" d="M70,28.27c.14-.55.41-.69.84-.25C70.56,28.25,70.33,28.53,70,28.27Z"/><path class="cls-5" d="M60.44,28.13l.06-.37c.3.14.61.27.73.62a.25.25,0,0,0-.24.14C60.73,28.5,60.5,28.43,60.44,28.13Z"/><path class="cls-5" d="M64,24.28l.33,0c.16.14.35.33.17.51s-.48,0-.71-.11Z"/><path class="cls-5" d="M65.22,23.58c.51.27.15.55,0,.83C64.69,24.14,64.83,23.86,65.22,23.58Z"/><path class="cls-5" d="M65.86,28.49c-.17-.41,0-.82,0-1.23C66.39,27.67,66,28.08,65.86,28.49Z"/><path class="cls-5" d="M71.27,27.87c0-.2-.09-.45.15-.54s.33.15.46.31C71.75,27.9,71.51,27.89,71.27,27.87Z"/><path class="cls-4" d="M78.63,25.89a.78.78,0,0,0,.09-.54c.1-.4.39-.28.65-.24v.14c-.5,0-.36.34-.38.61,0,.05,0,.1,0,.16S78.71,26,78.63,25.89Z"/><path class="cls-5" d="M65.46,26.35c-.22,0-.5.15-.63-.06s.08-.38.3-.45C65.29,26,65.49,26.09,65.46,26.35Z"/><path class="cls-4" d="M79.37,24.25c0-.21,0-.45.34-.33s.17.27.09.45-.12.26-.3.27C79.49,24.5,79.52,24.34,79.37,24.25Z"/><path class="cls-5" d="M72.26,27.51c0-.53.22-.64.65-.34A.63.63,0,0,1,72.26,27.51Z"/><path class="cls-5" d="M73.26,27.13c0-.17-.07-.38.14-.47s.34,0,.41.22C73.71,27.13,73.48,27.12,73.26,27.13Z"/><path class="cls-5" d="M64.44,22.76a.36.36,0,0,1,.43-.26c0,.18,0,.37-.16.46S64.47,22.91,64.44,22.76Z"/><path class="cls-5" d="M65.36,27a.46.46,0,0,1,.23-.34c.07.11.17.21.14.36Z"/><path class="cls-3" d="M63.36,21.48c-.28,0-.24-.2-.23-.38C63.36,21.14,63.39,21.29,63.36,21.48Z"/><path class="cls-3" d="M74.26,26.61l.25.07c0,.13-.12.19-.25.15Z"/><path class="cls-2" d="M73.63,29.41c-.33,0-.74,0-.74-.57,0-.24.19-.23.36-.2a.85.85,0,0,1,.73.66C74,29.53,73.81,29.46,73.63,29.41Z"/><path class="cls-2" d="M79,25.86c0-.27-.12-.63.38-.61.08.11.21.1.32.14a.39.39,0,0,1,.27.48c-.06.29-.28.14-.44.11A5,5,0,0,1,79,25.86Z"/><path class="cls-2" d="M77.12,27v-.5h.06c.3.06.74.1.64.48S77.36,27,77.12,27Z"/><path class="cls-4" d="M74.74,27.85l.22,0c.1.06.28.06.23.22a.5.5,0,0,1-.53.33A.74.74,0,0,1,74.74,27.85Z"/><path class="cls-5" d="M74.74,27.85a.74.74,0,0,0-.08.53c-.36-.11-.28-.39-.25-.65C74.53,27.75,74.66,27.73,74.74,27.85Z"/><path class="cls-4" d="M78.62,26.36c.09-.13.23-.11.36-.13C79,26.54,78.83,26.57,78.62,26.36Z"/><path class="cls-4" d="M61.76,26.69c.42,0,.47.23.44.55-.27,0-.46.41-.65.22a1.73,1.73,0,0,0-.87-.56c-.09,0,0-.23.07-.31a.47.47,0,0,1,.57,0C61.46,26.67,61.52,27,61.76,26.69Z"/><path class="cls-2" d="M63.2,27.75c-.3.07-.5.37-.83.38a1.21,1.21,0,0,1,.16-.81l.21-.08h.53Z"/><path class="cls-2" d="M60.12,24c.05.23-.11.35-.24.48s-.53,0-.47-.34C59.52,23.64,59.89,24.11,60.12,24Z"/><path class="cls-2" d="M74.22,26v.48h-.06c-.27,0-.6.07-.53-.36S74,26.11,74.22,26Z"/><path class="cls-2" d="M69.58,27.45c0-.15.13-.22.28-.17,0,.39.13.83-.39,1h0Z"/><path class="cls-2" d="M63.74,30.13c.06.31.29.28.51.25.1.14.35.21.2.45A.46.46,0,0,1,64,31c-.2,0-.4,0-.32-.29,0,0,0-.1-.06-.15-.53.23-.81-.16-1.19-.4-.23-.14-.44-.18-.51-.48a.31.31,0,0,0-.43-.24c-.11,0-.22,0-.22-.12s.1-.17.21-.18.54-.11.73.18.41.25.65.31c.1.44.34.58.76.37Z"/><path class="cls-5" d="M62.63,19.71c-.43-.13-.11-.48-.22-.7.19,0,.29-.39.51-.12s.06.42-.1.59Z"/><path class="cls-4" d="M63.35,18.79c.34.07.28.36.36.55a.24.24,0,0,1-.2.36c-.21,0-.26-.18-.26-.35S63.19,19,63.35,18.79Z"/><path class="cls-5" d="M62.49,25.37l-.13-.2,0-.28.48,0A.4.4,0,0,1,62.49,25.37Z"/><path class="cls-5" d="M62,25.43c-.15.32-.39.22-.63.14C61.55,25.29,61.8,25.41,62,25.43Z"/><path class="cls-1" d="M74.38,19.89c.17.16.08.26-.07.38a.83.83,0,0,0-.33.67l-.27.17c-.38.07-.4.77-.94.53-.08-.29-.22-.59,0-.89.27.05.57.22.67-.23A3.4,3.4,0,0,0,74.38,19.89Z"/><path class="cls-4" d="M73.42,20.52c-.1.45-.4.28-.67.23-.31-.41.1-.82,0-1.23l0,0c.46,0,.56.2.48.59C73.21,20.27,73.09,20.48,73.42,20.52Z"/><path class="cls-4" d="M72.74,19.52l-.17-.07,0-.05.15.09Z"/><path class="cls-3" d="M73.71,21.11l.27-.17C74,21.1,73.85,21.12,73.71,21.11Z"/><path class="cls-3" d="M74,22.71a.33.33,0,0,1,.39-.18c0,.22,0,.43-.06.72C74.08,23.09,74.09,22.87,74,22.71Z"/><path class="cls-4" d="M71,16.49c-.15,0-.29,0-.39-.1s0-.2-.13-.24h0a.75.75,0,0,1,.29-.48A1.09,1.09,0,0,1,71,16.49Z"/><path class="cls-4" d="M58.17,27.75c.14,0,.33,0,.27.21s0,.38-.24.36a.36.36,0,0,1-.3-.34C57.87,27.78,58,27.76,58.17,27.75Z"/><path class="cls-3" d="M66.63,21c-.17,0-.38,0-.38-.26.19,0,.4-.25.57,0S66.79,21,66.63,21Z"/><path class="cls-3" d="M70.48,16.15c.12,0,.14.13.13.24Z"/><path class="cls-1" d="M76.07,25.7c-.24.08-.45.08-.57-.18,0,0,.12-.06.15-.1a6.27,6.27,0,0,1,.74-1.15c.22,0,.21.13.14.29C76.37,24.94,76.22,25.32,76.07,25.7Z"/><path class="cls-3" d="M76.14,23.64l.38,0c-.06.2-.23.19-.39.2Z"/><path class="cls-4" d="M69.58,27.45l-.12.83C69,27.93,69.31,27.69,69.58,27.45Z"/><path class="cls-3" d="M70.85,22.1a.24.24,0,0,1,.29-.2A.22.22,0,0,1,70.85,22.1Z"/><path class="cls-2" d="M63.64,28.52c-.67-.06-.29-.46-.25-.74l.35-.08c.13.14.49-.1.46.24A.65.65,0,0,1,63.64,28.52Z"/><path class="cls-5" d="M65.32,28.77c-.1-.26.06-.7-.46-.68.12-.3.37-.29.51-.11A.51.51,0,0,1,65.32,28.77Z"/><path class="cls-5" d="M64.51,27.18c.18-.25.42-.14.64-.09C65,27.35,64.75,27.29,64.51,27.18Z"/><path class="cls-3" d="M63.27,27.25h-.53a.37.37,0,0,1,.53-.21C63.38,27.07,63.37,27.17,63.27,27.25Z"/><path class="cls-5" d="M64,26.39a.21.21,0,0,1,.3-.07c.08.05,0,.13,0,.18A.27.27,0,0,1,64,26.39Z"/><path class="cls-5" d="M64.16,26.85c0,.1,0,.2,0,.3C64,27.07,64,27,64.16,26.85Z"/><path class="cls-3" d="M76.34,27c0-.19.07-.39.28-.47C76.6,26.7,76.74,27,76.34,27Z"/><path class="cls-3" d="M63.74,30.13,63.63,30Z"/><path class="cls-7" d="M13.79,94.11c-.08-2.44-.17-5.36-.15-7.54h-.05c-.34,2.05-.76,4.22-1.27,6.63l-1.79,8.47h-1L7.91,93.36C7.43,90.9,7,88.64,6.74,86.57h0c0,2.18-.11,5.1-.2,7.72l-.27,7.49H5l.7-17.46H7.37l1.72,8.44c.42,2.15.77,4.07,1,5.88h.05c.25-1.76.61-3.68,1.06-5.88L13,84.32h1.67l.63,17.46H14Z"/><path class="cls-7" d="M23.43,101.78l-.1-1.58h0a2.62,2.62,0,0,1-2.21,1.86c-1.47,0-2.22-1.79-2.22-3.6,0-3,1.56-4.69,4.36-4.66v-.26c0-1-.17-2.9-1.65-2.9a2.65,2.65,0,0,0-1.89.93l-.3-1.5A3.23,3.23,0,0,1,21.75,89c2.22,0,2.76,2.62,2.76,5.13v4.69c0,1.09,0,2.15.12,3Zm-.19-6.4c-1.44,0-3.07.39-3.07,2.82,0,1.48.57,2.18,1.24,2.18.94,0,1.54-1,1.75-2.1a3.55,3.55,0,0,0,.08-.73Z"/><path class="cls-7" d="M28.83,101.78V91h-1V89.24h1v-.6a8.84,8.84,0,0,1,.84-4.37,2.08,2.08,0,0,1,1.77-1.17,2,2,0,0,1,1.12.36l-.18,1.76a1.31,1.31,0,0,0-.84-.28c-1.12,0-1.41,1.71-1.41,3.63v.67h1.76V91H30.13v10.81Z"/><path class="cls-7" d="M41.19,98.36q0,1.94.06,3.42H40.08l-.07-2h0c-.35,1-1.11,2.33-2.4,2.33s-2.5-1.09-2.5-5.49V89.24H36.4v6.94c0,2.38.42,4,1.61,4,.89,0,1.5-1.06,1.74-2.07a5.26,5.26,0,0,0,.12-1.17V89.24h1.32Z"/><path class="cls-7" d="M45.43,92.63c0-1.29,0-2.35-.06-3.39h1.17l.08,2.07h0C47,90.12,47.84,89,49,89c1,0,2.57,1,2.57,5.34v7.49H50.29V94.55c0-2-.44-3.7-1.68-3.7-.87,0-1.54,1.06-1.77,2.33a5.44,5.44,0,0,0-.09,1.06v7.54H45.43Z"/><path class="cls-7" d="M62.05,89.24c0,.91-.06,1.92-.06,3.44V100c0,2.88-.33,4.64-1,5.73a3,3,0,0,1-2.64,1.5,3.25,3.25,0,0,1-2.41-1l.33-1.73a2.94,2.94,0,0,0,2.13,1c1.34,0,2.33-1.22,2.33-4.38V99.63h0c-.4,1.16-1.18,2.09-2.3,2.09-1.8,0-3.09-2.64-3.09-6.11,0-4.25,1.6-6.66,3.26-6.66,1.26,0,2,1.14,2.27,2.18h0l.06-1.89Zm-1.36,5a5.49,5.49,0,0,0-.08-1c-.24-1.32-.88-2.41-1.84-2.41-1.26,0-2.16,1.84-2.16,4.74,0,2.46.72,4.51,2.14,4.51.81,0,1.55-.88,1.83-2.33a6.29,6.29,0,0,0,.11-1.22Z"/><path class="cls-7" d="M72.8,95.4c0,4.64-1.86,6.66-3.62,6.66-2,0-3.47-2.49-3.47-6.45,0-4.2,1.59-6.66,3.59-6.66S72.8,91.57,72.8,95.4ZM67,95.53c0,2.75.91,4.82,2.2,4.82s2.21-2,2.21-4.87c0-2.12-.62-4.82-2.18-4.82S67,93.15,67,95.53Z"/><path class="cls-7" d="M83.47,101.78l-3.3-17.46h1.41l1.57,8.6c.44,2.35.81,4.48,1.08,6.52h0c.29-2,.71-4.22,1.15-6.5l1.71-8.62h1.4l-3.61,17.46Z"/><path class="cls-7" d="M95.14,101.78,95,100.2H95a2.62,2.62,0,0,1-2.22,1.86c-1.47,0-2.22-1.79-2.22-3.6,0-3,1.56-4.69,4.37-4.66v-.26c0-1-.17-2.9-1.65-2.9a2.63,2.63,0,0,0-1.89.93l-.3-1.5A3.23,3.23,0,0,1,93.46,89c2.22,0,2.76,2.62,2.76,5.13v4.69c0,1.09,0,2.15.12,3ZM95,95.38c-1.44,0-3.08.39-3.08,2.82,0,1.48.57,2.18,1.25,2.18.94,0,1.54-1,1.75-2.1a3.55,3.55,0,0,0,.08-.73Z"/><path class="cls-7" d="M100.4,83.39h1.32v18.39H100.4Z"/><path class="cls-7" d="M106,83.39h1.32v18.39H106Z"/><path class="cls-7" d="M112.31,95.92c0,3.08,1.17,4.35,2.49,4.35a3.15,3.15,0,0,0,2-.64l.22,1.63a3.84,3.84,0,0,1-2.41.77c-2.23,0-3.57-2.53-3.57-6.32S112.34,89,114.46,89c2.36,0,3,3.6,3,5.91,0,.47,0,.83,0,1.06Zm3.87-1.63c0-1.45-.35-3.7-1.83-3.7-1.33,0-1.92,2.12-2,3.7Z"/><path class="cls-7" d="M121.62,89.24l1.59,7.41c.16.83.34,1.81.46,2.56h0c.14-.75.29-1.71.47-2.61l1.44-7.36H127l-2,8.93c-.94,4.31-1.59,6.51-2.49,7.85a3.39,3.39,0,0,1-1.62,1.48l-.33-1.92a3.55,3.55,0,0,0,1.16-1.11,7.68,7.68,0,0,0,1.11-2.54,2.42,2.42,0,0,0,.1-.54,3.31,3.31,0,0,0-.09-.6l-2.68-11.55Z"/><path class="cls-8" d="M108.71,80a51.5,51.5,0,1,0-86.42,0Z"/><rect class="cls-8" x="0.5" y="80" width="129" height="31"/><path class="cls-7" d="M.11,79.5H129v-.77H109.57c9.1-17.39,12.08-36.09.43-54.23C100,9,90.65,3.18,72.64,1,58.1-.71,43.93,3.77,32.39,13.76,10.12,33,10.93,49.31,19.48,79.06H.11ZM23,23.5C37,6.23,51.86.29,72.39,1.59,93.52,2.93,113.49,21.38,117,44.5c2.23,14.64-1.14,21.86-6,31-.9,1.69-5.59,4.43-8.18,2.86,1.49-4.26,3.14-8.46,4.45-12.79,2.93-9.65,2.21-19.27-.48-28.87-.93-3.35-2.51-4.5-5.84-4.11C89.7,33.9,75.77,39.3,69.42,47.94l10,4.81a3.65,3.65,0,0,1,1.3.72c1.55,2,4.25,4,4.19,5.92s-2.82,4.07-4.84,5.12c-3.27,1.71-6.94,2.53-10.4,3.85-1.54.59-3,1.48-4.48,2.23L65,72.14l14.29,6.25a33.3,33.3,0,0,1-3.61.52q-16.56,0-33.13,0a16.15,16.15,0,0,1-1.84,0c-3.62-.44-7.2-3.63-7.3-6.67-.13-4.35,3-5.71,6-6.27,8.43-1.61,16.95-2.63,25.38-4.2,2.64-.49,5.12-2,7.67-3C71,56,70.19,52.74,68.22,50.79,56.85,39.51,42.79,34.38,28,31.26c-2.46-.51-3.78.67-4.62,3.24C18.75,48.61,19,62.26,26.22,75.37a15.72,15.72,0,0,1,.93,2.14,3.13,3.13,0,0,1-.06,1c-2.19,1.13-3.79,3.19-5.09,1C12.42,63.58,10.14,39.4,23,23.5Z"/></g></g></svg>