<svg xmlns="http://www.w3.org/2000/svg" viewBox="0 0 131.31 109.87"><defs><style>.cls-1{fill:#e79155;}.cls-2{fill:#6dbd47;}.cls-3{fill:#add28d;}.cls-4{fill:#8ecb69;}.cls-5{fill:#dde2c7;}.cls-6{fill:#fefefd;}.cls-7{fill:#00a259;}</style></defs><title>Asset 8</title><g id="Layer_2" data-name="Layer 2"><g id="Layer_1-2" data-name="Layer 1"><path class="cls-1" d="M71.4,27.8a5.46,5.46,0,0,0-2.54.43A1.55,1.55,0,0,0,67.58,30c.08.38-.33.73-.25,1.07.29,1.26.07,2.57.44,3.83.15.54.12,1.12.25,1.69.22,1,.57,2,.84,3A10.14,10.14,0,0,0,70,41.8c-1.1,0-2.2,0-3.29,0a4.78,4.78,0,0,1-1.6-.07v-9a13.59,13.59,0,0,1,.23-2.47c.07-.39,0-.71-.43-.81a1.1,1.1,0,0,0-.61-.3,3.15,3.15,0,0,0-1.46-.78c-.24-.51-.76-.53-1.2-.68-.23-.07-.45-.11-.48-.39s-.43-.48-.73-.63-.59-.59-1-.76a.35.35,0,0,0-.37-.38c-.26,0-.39-.18-.53-.35.1-.25-.4-.4-.12-.68.33.07.47.47.85.46,0,.1,0,.23.08.29a8.32,8.32,0,0,0,2.93,1.81,2.18,2.18,0,0,0,1.2.64c.15.4.5.35.81.36a.45.45,0,0,0,.45.11.48.48,0,0,0,.65.46c.46-.14.44-.57.37-1l0-.25c.17-.41.53-.82,0-1.24a.3.3,0,0,0-.14-.25c0-.15-.07-.25-.14-.36l-.13-.29c0-.26-.17-.38-.33-.51a.64.64,0,0,0-.7-.34.44.44,0,0,0-.53-.25c.12-.22-.53-.36-.07-.62.23.14.47.37.71.12s0-.37-.17-.51A2.19,2.19,0,0,0,63.73,22a.45.45,0,0,0-.2-.52c.06-.4-.35-.69-.28-1.1,0-.19,0-.34-.23-.38a1.07,1.07,0,0,0-.13-.72c.29,0,.43,0,.54.38a4.09,4.09,0,0,0,.9,2c0,.14.09.28.27.2s.18-.29.16-.47a1.33,1.33,0,0,0,.29-.85.88.88,0,0,0,.23-.76l.36-.05c.13.24.33.46.22.77a4.88,4.88,0,0,0-.75,2c-.39.28-.53.56,0,.83l0,.21A3.24,3.24,0,0,0,66,25.09a2,2,0,0,1,.13.25c.18.39.41.25.49,0A4.14,4.14,0,0,0,67,24.18c0-.1.07-.21.1-.32a.86.86,0,0,0,.3-.67l.69-1.7a.26.26,0,0,0,.18-.3c.06-.19.13-.39.2-.58a.49.49,0,0,0,.27-.56l.06-.62c.17-.14.1-.32.08-.5L69,17.56v-.37h.49v.53a1.87,1.87,0,0,0-.14,1c0,.09,0,.22.11.26s.24-.08.29-.18a4.81,4.81,0,0,0,.58-1.26c.3-.21.17-.57.27-.84s.11-.4.38-.4v.62c-.08.34-.16.67-.25,1l-.27.83-.15.24-.11.3a.58.58,0,0,0-.22.49L69.54,21a.25.25,0,0,0-.15.3c0,.09,0,.18,0,.26-.36.21-.29.61-.43.92s-.36.68,0,.88.55-.17.78-.37a.69.69,0,0,0,.13-.2c.64-.14,1-.66,1.35-1.1a4.8,4.8,0,0,1,.92-.88l.5-.1c-.07.58-.66.77-.92,1.21-.16,0-.36,0-.42.21-.13.42-.5.62-.77.92a4.14,4.14,0,0,0-1.29,1,1.08,1.08,0,0,0-.73.62.3.3,0,0,0-.17.25.31.31,0,0,0-.08.37l0,.25a1.42,1.42,0,0,0-.22.87c0,.13,0,.26-.05.38-.18.21-.11.48-.18.71-.13.42,0,.61.48.46a.9.9,0,0,0,.49-.26l.41-.12a.38.38,0,0,0,.34-.15.65.65,0,0,0,.45-.24c.38.26.61,0,.84-.25l.48-.15c.24,0,.48,0,.61-.24l.38-.12a.63.63,0,0,0,.65-.34l.35,0c.22,0,.45,0,.55-.25l.45-.05a.19.19,0,0,0,.25-.15.46.46,0,0,0,.42-.53l.36-.19c.35.38.68.3,1-.07a.48.48,0,0,0,.37-.23.83.83,0,0,0,.75-.37c.63-.12,1-.64,1.6-.89l.37-.15c.15.09.12.25.13.39s0,.34-.13.46c-.26,0-.55-.15-.65.24a.64.64,0,0,0-.85.36l-.11.14a1.36,1.36,0,0,0-.94.49l-.18,0a3.11,3.11,0,0,0-1.26.59l-.27.17a19.2,19.2,0,0,0-2.69,1.05c-.06,0-.08.13-.11.2s0,.31-.16.41-.37-.1-.52.07A.25.25,0,0,0,71.4,27.8Z"/><path class="cls-2" d="M65.07,41.71a4.78,4.78,0,0,0,1.6.07c1.09,0,2.19,0,3.29,0a.07.07,0,0,1,0,.06c0,.25.22.32.45.32,1.63,0,3.14.65,4.75.81a3,3,0,0,1,1.64.44.88.88,0,0,0,.66.19c.31,0,.84-.06.87.48a.5.5,0,0,0,.84.4c.44-.46.83-.15,1.22-.06A3.08,3.08,0,0,1,81.8,45,13.59,13.59,0,0,0,78,44.69c-.38,0-.75,0-1.13,0a1,1,0,0,0-.54.09c-.15.09-.3.17-.27.37s.19.23.36.27c.7.16,1.39.36,2.09.56s1,.61,1.68.54l.21,0c.17.31.63.24.75.61h-.62a.26.26,0,0,0-.39,0H79.9c-.24-.35-.56-.24-.87-.15l-.36,0a4.42,4.42,0,0,0-1.94-.24h-.84c-.09-.16-.24-.15-.38-.15H70.33c-.16,0-.34,0-.44.15l-1,0c-.15-.14-.4,0-.56-.15l.32-.31,1,0a.33.33,0,0,0,.47-.26c.06-.27-.17-.28-.35-.32a11.91,11.91,0,0,0-3.9-.21c-1.76.13-3.49.55-5.26.59-.13,0-.25,0-.29.16l-.64,0a1.55,1.55,0,0,0-1.24.2,1.22,1.22,0,0,1-.92,0c.06-.2.2-.19.31-.22.58-.15,1.16-.29,1.73-.46a13.64,13.64,0,0,1,2.59-.65c.27,0,.58-.06.58-.34s-.36-.25-.58-.27a19.53,19.53,0,0,0-4.45.3c-.42.07-.93,0-1.26.38l-2.12.32c-.13-.36.33-.35.38-.59a21.3,21.3,0,0,1,2.08-1,37.84,37.84,0,0,1,3.86-1.54,1.1,1.1,0,0,1,.78.07,1,1,0,0,0,1.12-.07,1.54,1.54,0,0,1,1.3-.3C64.29,42.2,64.59,41.67,65.07,41.71Z"/><path class="cls-3" d="M72,27.72c.15-.1.07-.29.16-.41.58-.08,1.33.36,1.64-.56.06-.15.3-.09.46-.08,0,.25-.11.53.25.64a.49.49,0,0,0,.53-.32c0-.16-.13-.17-.23-.22.12-.13.3-.23.28-.45a1.21,1.21,0,0,0,1.37,0c.19-.09.16-.5.51-.41s.61.32.7,0-.34-.42-.64-.48H77a.4.4,0,0,1-.3-.17,1.36,1.36,0,0,1,.94-.49c-.07.78.52.45.86.52s.34.18.36-.13V25c0-.05,0-.1,0-.15.18,0,.35.09.53.12s.38.18.44-.12a.39.39,0,0,0-.27-.48c-.11,0-.24,0-.32-.13V24c.16-.12.08-.31.13-.46s.24-.14.3-.27.19-.35-.09-.45-.33.11-.34.33l-.37.15c.17-.53-.46-.19-.51-.47v-.33h.4l0,.05c.38-.32.89-.14,1.3-.36.22-.11.48-.34.65.08-.18,0-.38,0-.53.12a.58.58,0,0,0,0,.88c.19.19.37.16.44-.14.29.11.29.37.08.45-.6.23-.49.7-.46,1.13,0,.62,0,.73-.62.53l-.3-.1c-.14.75-1.2.2-1.36.95a.32.32,0,0,1-.44.25c-.7-.26-.83.15-.86.7-.45-.51-.8.62-1.24,0-.11.78-.11.78.59.87a1,1,0,0,1,.21.1c-.13.14-.3.1-.46.1s-.33,0-.36.32c0,.45-.31.49-.59.12.21,0,.55,0,.34-.37s-.35-.63-.68-.48,0,.36.11.55l0,.12c-.06,0-.16,0-.18,0-.34.62-.84.34-1.31.22-.22-.06-.39-.1-.43.23s-.24.29-.51.19c-.58-.23-.93-.58-.82-1.25a.25.25,0,0,1,.12,0c.14.34.09.8.62.88.13,0,.25.21.36,0a.27.27,0,0,0-.13-.37C72.12,28.18,72,28,72,27.72Zm1.48.63c.18,0,.39.12.35-.11a.85.85,0,0,0-.73-.66c-.17,0-.36,0-.36.2C72.78,28.31,73.19,28.32,73.52,28.35Z"/><path class="cls-4" d="M80.18,46.53c-.64.07-1.12-.37-1.68-.54s-1.39-.4-2.09-.56c-.17,0-.34-.07-.36-.27s.12-.28.27-.37a1,1,0,0,1,.54-.09c.38,0,.75,0,1.13,0A13.59,13.59,0,0,1,81.8,45a3.08,3.08,0,0,0-1.37-.58c-.39-.09-.78-.4-1.22.06a.5.5,0,0,1-.84-.4c0-.54-.56-.48-.87-.48a.88.88,0,0,1-.66-.19A3,3,0,0,0,75.2,43c-1.61-.16-3.12-.81-4.75-.81-.23,0-.4-.07-.45-.32a9.38,9.38,0,0,1,2.92.38,12.24,12.24,0,0,0,1.86.36,16.05,16.05,0,0,1,3,.67c1.06.35,2.14.67,3.22,1,.77.21,1.38.75,2.12,1,.13,0,.17.12.14.23s-.11.12-.19.11h-.13c-.91-.19-1.85-.28-2.77-.45a15.53,15.53,0,0,0-3.29,0c.64.54,1.33.37,1.84.68A8,8,0,0,1,80.18,46.53Z"/><path class="cls-3" d="M56.39,45.25c.33-.42.84-.31,1.26-.38a19.53,19.53,0,0,1,4.45-.3c.22,0,.59-.1.58.27s-.31.31-.58.34a13.64,13.64,0,0,0-2.59.65c-.57.17-1.15.31-1.73.46-.11,0-.25,0-.31.22a1.22,1.22,0,0,0,.92,0,1.55,1.55,0,0,1,1.24-.2,4.68,4.68,0,0,1-2.91.56c-.12,0-.27,0-.28-.18s.16-.14.26-.2a17.74,17.74,0,0,1,3.82-1.23c.18-.06.51,0,.43-.31s-.32,0-.5,0a21.66,21.66,0,0,0-3.39.42A.87.87,0,0,1,56.39,45.25Z"/><path class="cls-3" d="M62.24,27.08a8.32,8.32,0,0,1-2.93-1.81c-.07-.06-.06-.19-.08-.29.27-.3.33-.47-.09-.79a9.62,9.62,0,0,1-2.26-2c.6.06.82.67,1.31.91s.77.21.92-.23.29-.6.72-.31c.09.07.28,0,.42,0,0,.21-.17.27-.24.41-.23.09-.6-.37-.71.14-.06.32.22.34.47.34.25.29.37.78.93.59a.72.72,0,0,1,.07.15c-.38,0-.82.33-1-.35,0-.18-.33-.22-.47-.05s.07.26.19.36c.28.24.35.8.92.64a.4.4,0,0,1,.07.16c0,.26.2.3.4.26.38-.07.57.16.74.43-.24.34-.3,0-.44-.11a.47.47,0,0,0-.57,0c-.11.07-.16.29-.07.31a1.73,1.73,0,0,1,.87.56c.19.19.38-.26.65-.22l.33.08a1.19,1.19,0,0,0-.16.8Z"/><path class="cls-4" d="M72.15,26.45l-.38.12c-.13-.15-.21-.41-.46-.3s-.17.34-.15.54l-.48.15c-.43-.44-.7-.3-.84.25a.65.65,0,0,1-.45.24l0-.22c.52-.18.39-.62.39-1a.44.44,0,0,0,.37-.45c0-.51.33-.42.65-.34h0c.24.3.49.57.74,0,.06-.14.2-.14.33-.13s.39,0,.44-.28.26-.22.42-.12c.37.25.61.2.72-.25,0-.17.2-.2.35-.23l.21.17c0,.11.08.23.13.35-.19.09-.51-.35-.59.12s.26.37.53.36h.06l0,.12v.22l-.45.05c-.07-.19-.2-.31-.41-.22s-.13.3-.14.47l-.35,0C72.37,25.8,72.15,25.91,72.15,26.45Z"/><path class="cls-3" d="M61.12,27.32c0,.28.25.32.48.39.44.15,1,.17,1.2.69l0,.16c-.24-.06-.5-.07-.65-.3s-.47-.2-.73-.18-.21,0-.21.17.11.16.22.12a.32.32,0,0,1,.43.24c.07.31.28.35.51.49.38.24.66.62,1.19.4,0,.05.07.11.06.15-.08.31.12.29.32.29a.46.46,0,0,0,.44-.17c.15-.24-.1-.31-.2-.45l.12-.15a1.1,1.1,0,0,1,.61.3c-.12.58-.61.73-1.07.91-.12.05-.28.08-.35,0a.87.87,0,0,0-.86-.46c-.19,0-.17-.21-.21-.34s-.17-.31-.36-.19c-.39.24-.49.05-.48-.3s-.09-.32-.33-.42c-.44-.16-.77-.52-1.26-.67-.31-.09-.74.13-1-.29a2.67,2.67,0,0,1,1.28.18c.37.14.62,0,.6-.41A.25.25,0,0,1,61.12,27.32Z"/><path class="cls-3" d="M64.33,21.7a4.09,4.09,0,0,1-.9-2c-.11-.37-.25-.42-.54-.38-.45-.05-.36-.38-.37-.67l.19-.23c.16-.18.27-.38.1-.59s-.32.14-.5.11c-.25-.25,0-.48.06-.69s.22,0,.31.07c.53.54.43,0,.48-.28.5.42.57,1.13,1,1.57a.23.23,0,0,1,0,.22c-.32.29,0,.46.11.66-.63.23-.55.63-.23,1.06a2.16,2.16,0,0,1,.29.54c0,.1.17.1.27.07s.13-.13.07-.23c-.29-.56.19-.3.38-.35a1.33,1.33,0,0,1-.29.85A.36.36,0,0,0,64.33,21.7Zm-1.09-4c-.16.16-.1.37-.1.56s0,.35.26.34a.24.24,0,0,0,.2-.36C63.52,18.09,63.58,17.8,63.24,17.73Z"/><path class="cls-4" d="M62.52,18.65c0,.29-.08.62.37.67A1.07,1.07,0,0,1,63,20c0,.18-.05.38.23.38-.07.41.34.7.28,1.1a.62.62,0,0,1-.64-.08,1.49,1.49,0,0,0-.62-.78.22.22,0,0,0-.14-.22l.14-.25c.32-.08.34-.21.07-.4l-.18-.1a4.05,4.05,0,0,0-.2-.94,2.15,2.15,0,0,1-.07-2.06,1,1,0,0,1,1.27.35c0,.27.05.82-.48.28-.09-.1-.26-.18-.31-.07s-.31.44-.07.69S62.09,18.52,62.52,18.65Z"/><path class="cls-3" d="M60.27,46.23c0-.15.16-.16.29-.16,1.77,0,3.5-.46,5.26-.59a11.91,11.91,0,0,1,3.9.21c.18,0,.41.05.35.32a.33.33,0,0,1-.47.26c.08-.22.13-.45-.2-.45a30.66,30.66,0,0,0-4.29,0,31.93,31.93,0,0,1-4.67.43A.36.36,0,0,1,60.27,46.23Z"/><path class="cls-4" d="M58.5,25.2c.14.17.27.35.53.35a.35.35,0,0,1,.37.38c0,.3,0,.56.34.66.18,0,.14.21.15.35h0c-.22,0-.48.08-.66-.12-.46-.52-1.13-.81-1.53-1.4l0,0-.15-.19a.46.46,0,0,0-.23-.34.43.43,0,0,0-.3-.3l-.2-.19a.24.24,0,0,0-.27-.17l-.26-.48a1.48,1.48,0,0,0-.51-1l0-.37c.66,0,.36.57.57.81A11.56,11.56,0,0,0,58.5,25.2Z"/><path class="cls-4" d="M60.77,24.17A.72.72,0,0,0,60.7,24c-.56.19-.68-.3-.93-.59.13-.14.29-.25.24-.48s.29-.2.24-.41l.11-.12,1,.15h0c0,.19.07.38-.06.54s-.2.23,0,.37a.36.36,0,0,0,.36,0c.15-.05.25-.15.19-.33-.15-.42.13-.39.39-.38a.47.47,0,0,1,.06.36c-.3.22,0,.43,0,.65l0,.28-.34.26c-.22,0-.47-.15-.63.13A.57.57,0,0,1,60.77,24.17Z"/><path class="cls-3" d="M72.54,20.71l-.5.1a.41.41,0,0,0-.52-.37c0-.08,0-.16,0-.24.77.13.6-.5.72-.9,0-.2.1-.41-.08-.58a.34.34,0,0,1-.07-.4c.15-.33.32-.34.68-.23s-.09-.59.34-.62.48.22.5.52c0,.51.27.54.65.33v.51a3.4,3.4,0,0,1-1,.63c-.33,0-.21-.25-.18-.45.08-.38,0-.63-.48-.59l-.15-.08,0,0,.17.07c.11.41-.3.83,0,1.24-.2.3-.06.6,0,.89Z"/><path class="cls-4" d="M72.54,20.71l.12-.13c.54.23.56-.47.94-.53.14,0,.25,0,.27-.17a.82.82,0,0,1,.33-.67c.15-.12.24-.22.07-.38v-.51c.48.16.74.56.45.89s-.25.67-.46,1c-.17,0-.3.06-.15.26l-.1.24a7.22,7.22,0,0,0-1.39,1.37c-.71.46-.81.45-1-.13C71.88,21.48,72.47,21.29,72.54,20.71Z"/><path class="cls-4" d="M65.11,22.52a4.88,4.88,0,0,1,.75-2h.41l.06.4-.06.23c-.16.1-.13.24-.08.39l-.2.71c-.13,0-.23.1-.2.25s.14.14.25.1l.11,0,.06.28c0,.13-.13.3,0,.37s.47.26.37.58a.81.81,0,0,1-.73.56c-.23-.32,0-1-.74-.91l0-.21C65.26,23.07,65.62,22.79,65.11,22.52Z"/><path class="cls-3" d="M65.64,19.77l-.36.05.11-.6c-.15.14-.26.23-.4.2a1.49,1.49,0,0,1,.35-1c.12.13-.08.57.27.44s.15-.51.15-.77-.24-.08-.37-.12c-.07-.45.22-.79.34-1.17s.42-.18.65-.21.3,0,.4.27a1.36,1.36,0,0,1-.09,1.51,1.29,1.29,0,0,1,0-.73c0-.12.07-.25-.1-.28s-.29,0-.32.19l-.12,1.1v.61l0,.36C65.93,19.58,65.71,19.48,65.64,19.77Z"/><path class="cls-4" d="M75.66,21.22c.25,0,.57,0,.63.29s-.26.39-.44.54-.23.16-.35.25c-.73.12-1.34.67-2.12.63-.21-.2-.07-.35.07-.5s.26-.23,0-.37c0-.28.13-.4.4-.41.09.16.08.38.33.54l.06-.72Z"/><path class="cls-3" d="M71,16.94v-.62c.21-.34,0-.61-.12-.9a1.08,1.08,0,0,0-.25-.81.73.73,0,0,0-.29.47c-.42-.16,0-.44-.1-.65s-.12-.59.25-.59a.67.67,0,0,1,.75.48,9.71,9.71,0,0,0,.41,1,1.86,1.86,0,0,1-.12,1.46Z"/><path class="cls-3" d="M58.5,25.2a11.56,11.56,0,0,1-2.17-2.08c-.21-.24.09-.86-.57-.81.26-.21.48-.55.89-.28-.12.19-.17.41,0,.56.37.29.62.7,1,1s.75.4.72.91C58.1,24.8,58.6,25,58.5,25.2Z"/><path class="cls-3" d="M57.7,25.42c.4.59,1.07.88,1.53,1.4.18.2.44.09.66.12-.06.4-.38.24-.59.24s-.46.13-.4.45a1.24,1.24,0,0,1-1.18-.32c-.4-.47-.39-.62.2-.87l.44-.22C57.57,26.23,57.61,25.84,57.7,25.42Zm.36,1.27c-.15,0-.3,0-.27.23a.36.36,0,0,0,.3.34c.23,0,.21-.23.24-.36S58.2,26.7,58.06,26.69Z"/><path class="cls-3" d="M73.49,22.06c.22.14.06.26,0,.37s-.28.3-.07.5c0,.45-.22.3-.45.22a.53.53,0,0,0-.41-.23c-.5-.14-1-.32-1.42.16l-.67,0c.27-.3.64-.5.77-.92.06-.19.26-.18.42-.21.19.58.29.59,1,.13C72.91,22.59,73.2,22.08,73.49,22.06Z"/><path class="cls-4" d="M66.11,19.59l0-.36a5.74,5.74,0,0,0,1-.58.57.57,0,0,1,.69.08c.22.21,0,.37-.13.52a.39.39,0,0,0-.1.45c.16.38-.13.46-.35.61a.44.44,0,0,1-.69-.12V20c.16,0,.31-.14.19-.29s-.38.05-.57,0Z"/><path class="cls-4" d="M58.38,24.52c0-.51-.45-.67-.72-.91s-.61-.73-1-1c-.2-.15-.15-.37,0-.56l.23.15a9.62,9.62,0,0,0,2.26,2c.42.32.36.49.09.79C58.85,25,58.71,24.59,58.38,24.52Z"/><path class="cls-4" d="M63.72,23.57c-.46.26.19.4.07.62-.27.73-.92.44-1.42.55v-.43a.4.4,0,0,0,.38-.5l.14-.48h0l.09-.13.15-.25c.06,0,.16-.08.16-.12s-.11-.11-.21-.1h0c.09-.26.27-.54.49-.19a1.52,1.52,0,0,1,.33.7Z"/><path class="cls-4" d="M69.52,17.72v-.53c0-.32.11-.64.15-1,0-.17.25-.4-.07-.51s-.44,0-.47.31a.16.16,0,0,1-.23.13c-.11,0-.13-.15-.09-.26s.11-.22,0-.32l0-.25A.23.23,0,0,0,69,15.1h.25c.22.23.41-.05.62,0-.15.41.35.6.34.91A14.15,14.15,0,0,1,70,17.54.77.77,0,0,1,69.52,17.72Z"/><path class="cls-5" d="M70,17.54A14.15,14.15,0,0,0,70.23,16c0-.31-.49-.5-.34-.91.1-.19-.09-.1-.14-.14a.63.63,0,0,1,.5-.49c.07.21-.32.49.1.65h0l.13.24c.1.14.24.12.39.09.13.29.33.56.12.9-.27,0-.3.19-.38.4s0,.63-.27.84Z"/><path class="cls-5" d="M71.1,23.08c.42-.48.92-.3,1.42-.16-.12.16-.29.14-.45.13-.37,0-.62.05-.56.49,0,.1,0,.28-.06.29-.59.16-.85.85-1.49.93-.12,0-.31,0-.35,0-.38-.52-.8-.14-1.2-.07a1.08,1.08,0,0,1,.73-.62c.68.53.84.52,1.42-.09a.89.89,0,0,1,.35-.23C71.31,23.61,71.26,23.36,71.1,23.08Z"/><path class="cls-4" d="M76.54,24.6a.48.48,0,0,1-.37.23L76,24.64c.15-.38.3-.76.46-1.14.07-.16.08-.28-.14-.29L76,23.06v-.25c.16,0,.33,0,.39-.19.28-.13.41-.67.87-.31l0,.25c-.13,0-.28.05-.17.25s0,.34,0,.51Z"/><path class="cls-3" d="M68.78,15.57c.13.1.06.21,0,.32s0,.22.09.26a.16.16,0,0,0,.23-.13c0-.31.22-.4.47-.31s.09.34.07.51c0,.33-.1.65-.15,1H69c-.26-.26-.4.11-.61.13A2.5,2.5,0,0,1,68.78,15.57Z"/><path class="cls-3" d="M69.89,46.72c.1-.17.28-.15.44-.15h5.18c.14,0,.29,0,.38.15a1.34,1.34,0,0,1-.79.08c-1.55,0-3.11,0-4.67,0C70.25,46.8,70.06,46.85,69.89,46.72Z"/><path class="cls-3" d="M76,23.06l.27.15a6.55,6.55,0,0,0-.74,1.14s-.1.07-.15.1c-.33,0-.22.27-.21.45l-.36.19c-.28-.1-.28-.36-.35-.6s.5-.22.39-.57a1.93,1.93,0,0,1,0-.24C75.34,23.64,75.57,23.16,76,23.06Z"/><path class="cls-5" d="M73.49,22.06c-.29,0-.58.53-.87,0A7.22,7.22,0,0,1,74,20.68c0,.32,0,.56.47.44a1.28,1.28,0,0,1,1.18.1l-1.38.25a.33.33,0,0,0-.39.18C73.62,21.66,73.48,21.78,73.49,22.06Z"/><path class="cls-4" d="M76.26,28.05a1,1,0,0,0-.21-.1c-.7-.09-.7-.09-.59-.87.44.62.79-.51,1.24,0l.34.07c0,.19,0,.29.25.26h0c0,.13,0,.26,0,.38l-.25,0c-.31-.22-.36.1-.49.24Z"/><path class="cls-4" d="M65,19.42c.14,0,.25-.06.4-.2l-.11.6a.88.88,0,0,1-.23.76c-.19.05-.67-.21-.38.35.06.1.07.2-.07.23s-.24,0-.27-.07a2.16,2.16,0,0,0-.29-.54c-.32-.43-.4-.83.23-1.06a.28.28,0,0,1,.15.31c-.17.12-.22.28,0,.36s.49.11.43-.28A.49.49,0,0,1,65,19.42Z"/><path class="cls-5" d="M72.93,23.15c.23.08.49.23.45-.22.78,0,1.39-.51,2.12-.63-.13.57-.73.5-1.09.75s-.64.15-.44.66c.09.23-.12.4-.38.25S72.93,23.6,72.93,23.15Z"/><path class="cls-3" d="M68.64,46.29l-.32.31c.16.2.41,0,.56.15-.1.32-.36.29-.61.29l-1.42,0c-.12,0-.26,0-.29-.16a.18.18,0,0,1,.07-.15A13.92,13.92,0,0,1,68.64,46.29Z"/><path class="cls-4" d="M58.9,27.63c-.06-.32.06-.45.4-.45s.53.16.59-.24h0l.44.13c.06.3.29.37.55.39,0,.45-.23.55-.6.41A2.67,2.67,0,0,0,59,27.69.12.12,0,0,1,58.9,27.63Z"/><path class="cls-5" d="M73.77,24.43c-.15,0-.31.06-.35.23-.11.45-.35.5-.72.25-.16-.1-.37-.18-.42.12s-.21.31-.44.28-.27,0-.33.13c-.25.57-.5.3-.74,0,.19,0,.42.08.5-.22a.32.32,0,0,1,.48-.22c.15.06.24,0,.27-.14s0-.05,0-.06c.29-.43.58-.12.91-.06s.16-.73.7-.5C73.7,24.26,73.73,24.37,73.77,24.43Z"/><path class="cls-3" d="M61.89,16.69A2.15,2.15,0,0,0,62,18.75a4.05,4.05,0,0,1,.2.94c-.2.12-.29,0-.35-.18a5.39,5.39,0,0,0-.45-1.43C61.14,17.73,61.51,16.91,61.89,16.69Z"/><path class="cls-5" d="M69.77,22.79a.69.69,0,0,1-.13.2c-.23.2-.57.5-.78.37s-.09-.59,0-.88.07-.71.43-.92h.55l0,0C69.26,21.91,69.31,22.32,69.77,22.79Z"/><path class="cls-5" d="M70.77,25.43c-.32-.08-.63-.17-.65.34a.44.44,0,0,1-.37.45.2.2,0,0,0-.28.16c-.27.25-.56.49-.12.83v0l0,.22a.38.38,0,0,1-.34.15,1.67,1.67,0,0,1,.14-1.41c.13-.17.13-.43.47-.32s.23-.15.23-.3,0-.47.34-.49S70.73,25.1,70.77,25.43Z"/><path class="cls-4" d="M71.52,20.44a.41.41,0,0,1,.52.37,4.8,4.8,0,0,0-.92.88c-.3-.11-.6.25-1,0,.27-.17.59-.26.51-.63l.1,0a.22.22,0,0,0,.29-.2l.1,0c.19,0,.34-.06.37-.27A.09.09,0,0,1,71.52,20.44Z"/><path class="cls-4" d="M78.38,22.87c.05.28.68-.06.51.47-.56.25-1,.77-1.6.89-.27-.6.43-.59.58-.93Z"/><path class="cls-3" d="M69,17.56l-.15,1.37h-.22c-.76-.39-.8-.56-.3-1.43,0,.29.07.58.11.88C68.86,18.21,68.58,17.67,69,17.56Z"/><path class="cls-3" d="M70.49,18.77l.27-.83.66,0c-.11.28.14.54.08.82a.25.25,0,0,0-.23.13h-.63Z"/><path class="cls-5" d="M74.86,23.92c.11.35-.5.2-.39.57s.07.5.35.6a.46.46,0,0,1-.42.53l-.25-.07,0-.12V25c0-.12-.09-.24-.13-.35.15,0,.28-.09.29-.28C74.29,23.94,74.59,24,74.86,23.92Z"/><path class="cls-3" d="M62.22,22.82c-.26,0-.54,0-.39.38.06.18,0,.28-.19.33a.36.36,0,0,1-.36,0c-.16-.14-.06-.24,0-.37s.06-.35.06-.54a.74.74,0,0,0,.54-.08c.11-.08.24-.24.36-.08S62.25,22.69,62.22,22.82Z"/><path class="cls-3" d="M63.93,23.22a1.52,1.52,0,0,0-.33-.7c-.22-.35-.4-.07-.49.19-.42-.17-.23-.4-.06-.62l.68-.05a2.19,2.19,0,0,1,.53,1.14Z"/><path class="cls-5" d="M77.87,23.3c-.15.34-.85.33-.58.93a.83.83,0,0,1-.75.37l.54-1.28Z"/><path class="cls-4" d="M71.42,18l-.66,0c.09-.33.17-.66.25-1l.53-.15a.32.32,0,0,1,.1.52c-.4.11-.2.42-.21.66Z"/><path class="cls-5" d="M65.15,23.56c.79-.14.51.59.74.91l.09.62A3.24,3.24,0,0,1,65.15,23.56Z"/><path class="cls-3" d="M76.73,46.73a4.42,4.42,0,0,1,1.94.24C78,47,77.31,47.31,76.73,46.73Z"/><path class="cls-2" d="M66.15,18.62l.12-1.1c0-.18.16-.23.32-.19s.14.16.1.28a1.29,1.29,0,0,0,0,.73C66.59,18.6,66.37,18.61,66.15,18.62Z"/><path class="cls-4" d="M54.65,45c0,.24-.51.23-.38.59-.06.22-.2.25-.39.18,0-.53-.35-.1-.51-.21A1.54,1.54,0,0,1,54.65,45Z"/><path class="cls-4" d="M69,17.56c-.43.11-.15.65-.56.83,0-.3-.07-.59-.11-.88l.07-.19c.21,0,.35-.39.61-.13C69,17.32,69,17.44,69,17.56Z"/><path class="cls-5" d="M76,23.06c-.44.1-.67.58-1.14.62,0-.48.53-.48.68-.84.06-.13.29-.2.44-.3l0,0v.48Z"/><path class="cls-4" d="M74.65,28.41l0-.12c-.06-.19-.42-.41-.11-.55s.54.25.68.48-.13.33-.34.37Z"/><path class="cls-5" d="M66.11,19.59l0,.11c0,.26.21.23.38.25v.24c-.25,0-.25.19-.24.36h-.41c.11-.31-.09-.53-.22-.77C65.71,19.48,65.93,19.58,66.11,19.59Z"/><path class="cls-2" d="M80.66,23.17c-.07.3-.25.33-.44.14a.58.58,0,0,1,0-.88c.15-.16.35-.1.53-.12v.13a.23.23,0,0,0-.16.2l0,0c-.36.22-.22.37.06.51Z"/><path class="cls-5" d="M70.74,21l-.1,0-.72.53,0,0a1.17,1.17,0,0,1,1.25-1v.21l-.1,0A.23.23,0,0,0,70.74,21Z"/><path class="cls-5" d="M68.64,27.72a.9.9,0,0,1-.49.26c-.44.15-.61,0-.48-.46.07-.23,0-.5.18-.71.05,0,.11.08.13.13.13.27-.19.55,0,.77S68.41,27.38,68.64,27.72Z"/><path class="cls-5" d="M77.28,22.31c-.46-.36-.59.18-.87.3l-.38,0,0,0a4.78,4.78,0,0,1,.72-.63C77,21.67,77.25,21.93,77.28,22.31Z"/><path class="cls-4" d="M81.14,47.17c-.12-.37-.58-.3-.75-.61.4-.13.68.27,1.07.25.08,0,.14.14.1.25S81.29,47.18,81.14,47.17Z"/><path class="cls-5" d="M63.73,22l-.68.05c.07-.25-.41-.36-.16-.65a.62.62,0,0,0,.64.08A.45.45,0,0,1,63.73,22Z"/><path class="cls-5" d="M67,24.18a4.14,4.14,0,0,1-.38,1.14c-.08.27-.31.41-.49,0,.27,0,.37-.2.43-.46S66.66,24.31,67,24.18Z"/><path class="cls-4" d="M65.39,17.94c.13,0,.36-.19.37.12s.15.66-.15.77-.15-.31-.27-.44S65.37,18.09,65.39,17.94Z"/><path class="cls-3" d="M62.9,23.33c0,.16-.09.32-.14.48l-.48,0c0-.22-.3-.43,0-.65A.64.64,0,0,0,62.9,23.33Z"/><path class="cls-5" d="M72.25,19.3c-.12.4,0,1-.72.9C71.79,19.92,71.9,19.52,72.25,19.3Z"/><path class="cls-3" d="M55.74,22.68a1.48,1.48,0,0,1,.51,1A1,1,0,0,1,55.74,22.68Z"/><path class="cls-3" d="M61.37,22.57l-1-.15C60.8,21.79,61.06,22.38,61.37,22.57Z"/><path class="cls-5" d="M67.9,26.43a1.42,1.42,0,0,1,.22-.87C68.38,25.94,68.22,26.21,67.9,26.43Z"/><path class="cls-3" d="M79,47c.31-.09.63-.2.87.15C79.6,47.16,79.27,47.32,79,47Z"/><path class="cls-3" d="M64.85,19.88c.06.39-.23.34-.43.28s-.17-.24,0-.36A.37.37,0,0,0,64.85,19.88Z"/><path class="cls-3" d="M76.52,28.05c.13-.14.18-.46.49-.24C76.88,28,76.81,28.23,76.52,28.05Z"/><path class="cls-2" d="M53.37,45.54c.16.11.54-.32.51.21l-.48,0,0-.23Z"/><path class="cls-3" d="M71.43,18c0-.24-.19-.55.21-.66C71.63,17.55,71.78,17.84,71.43,18Z"/><path class="cls-5" d="M67.38,23.19a.86.86,0,0,1-.3.67C67.06,23.58,67,23.31,67.38,23.19Z"/><path class="cls-3" d="M69.75,14.92s.24-.05.14.14c-.21,0-.4.26-.62,0C69.37,14.86,69.6,15,69.75,14.92Z"/><path class="cls-5" d="M68.72,20.05a.49.49,0,0,1-.27.56A.43.43,0,0,1,68.72,20.05Z"/><path class="cls-5" d="M70,19.8a.58.58,0,0,1,.22-.49C70.47,19.62,70.27,19.72,70,19.8Z"/><path class="cls-5" d="M68.64,18.94h.22c0,.18.09.36-.08.5C68.58,19.31,68.67,19.11,68.64,18.94Z"/><path class="cls-3" d="M80.65,23.17c-.28-.14-.42-.29-.06-.51Z"/><path class="cls-3" d="M57,24.55a.43.43,0,0,1,.3.3Q56.86,25,57,24.55Z"/><path class="cls-5" d="M66,22.64c-.11,0-.22,0-.25-.1s.07-.22.2-.25C66,22.41,66,22.53,66,22.64Z"/><path class="cls-5" d="M78.78,22.54h-.4C78.51,22.23,78.64,22.23,78.78,22.54Z"/><path class="cls-5" d="M66.19,21.58c0-.15-.08-.29.08-.39C66.46,21.36,66.42,21.49,66.19,21.58Z"/><path class="cls-5" d="M68.16,25.31a.31.31,0,0,1,.08-.37C68.45,25.12,68.42,25.24,68.16,25.31Z"/><path class="cls-5" d="M66.33,21l-.06-.4C66.6,20.65,66.6,20.78,66.33,21Z"/><path class="cls-3" d="M62.34,19.79c.27.19.25.32-.07.4Z"/><path class="cls-3" d="M77.26,27.79c0-.12,0-.25,0-.38C77.55,27.57,77.48,27.69,77.26,27.79Z"/><path class="cls-3" d="M71.13,20.8v-.21l.36-.06C71.47,20.74,71.32,20.8,71.13,20.8Z"/><path class="cls-3" d="M57.51,25.19l.15.19C57.49,25.41,57.4,25.38,57.51,25.19Z"/><path class="cls-3" d="M77.29,27.41c-.2,0-.27-.07-.25-.26A.38.38,0,0,1,77.29,27.41Z"/><path class="cls-5" d="M77.09,22.81c-.11-.2,0-.22.17-.25A.22.22,0,0,1,77.09,22.81Z"/><path class="cls-3" d="M56.51,24.19a.24.24,0,0,1,.27.17C56.61,24.43,56.52,24.38,56.51,24.19Z"/><path class="cls-3" d="M63.11,22.72c.1,0,.21,0,.21.1s-.1.08-.16.12Z"/><path class="cls-5" d="M71.27,18.93a.25.25,0,0,1,.23-.13C71.5,19,71.47,19.1,71.27,18.93Z"/><path class="cls-5" d="M68.25,21.19a.26.26,0,0,1-.18.3C68,21.32,68.06,21.21,68.25,21.19Z"/><path class="cls-5" d="M69.39,21.3a.25.25,0,0,1,.15-.3Q69.71,21.27,69.39,21.3Z"/><path class="cls-5" d="M66.21,23l-.06-.28C66.39,22.73,66.44,22.82,66.21,23Z"/><path class="cls-5" d="M70.49,18.77l.15.15c-.07.13-.18.13-.3.09Z"/><path class="cls-3" d="M69,15.1a.23.23,0,0,1-.21.22C68.75,15.12,68.84,15.06,69,15.1Z"/><path class="cls-3" d="M80.61,22.64a.23.23,0,0,1,.16-.2C80.88,22.63,80.8,22.68,80.61,22.64Z"/><path class="cls-3" d="M62.13,20.44a.22.22,0,0,1,.14.22C62.11,20.66,62,20.62,62.13,20.44Z"/><path class="cls-5" d="M74.11,20.44c-.15-.2,0-.24.15-.26A.24.24,0,0,1,74.11,20.44Z"/><path class="cls-3" d="M80.13,47.16a.26.26,0,0,1,.39,0Z"/><path class="cls-4" d="M53.37,45.54l0,.23C53.2,45.72,53.25,45.64,53.37,45.54Z"/><path class="cls-3" d="M63,23.19l-.09.13Z"/><path class="cls-6" d="M62.38,24.31c0,.14,0,.28,0,.42.34.42.81.12,1.21.21a.5.5,0,0,0,.29.38.26.26,0,0,0,.27.12l-.09.35c-.21.12-.18.22,0,.3l.31,0c.24.11.46.17.64-.1l.21-.1.37,0a.3.3,0,0,1,.14.25c0,.42-.18.83,0,1.24l0,.25c-.18,0-.17.19-.21.33-.13.47-.35.6-.67.13l.37-.43a.51.51,0,0,0,.05-.79c-.14-.19-.39-.2-.51.11l-.19.09c-.13-.06-.22-.09-.24-.29,0-.47-.26-.53-.69-.2l-.35.08-.19,0,.07-.49c.1-.08.11-.18,0-.23a.37.37,0,0,0-.53.22l-.21.08-.33-.08c0-.32,0-.59-.44-.56-.17-.27-.36-.5-.74-.43-.2,0-.38,0-.4-.26a.4.4,0,0,0-.07-.16c-.57.16-.64-.4-.92-.64-.12-.1-.35-.17-.19-.36s.44-.13.47.05c.15.68.59.4,1,.35a.57.57,0,0,0,.51.33c.24.09.48.18.63-.13l.34-.26Z"/><path class="cls-4" d="M71.1,23.08c.16.28.21.53-.19.67a.89.89,0,0,0-.35.23c-.58.61-.74.62-1.42.09a4.14,4.14,0,0,1,1.29-1Z"/><path class="cls-4" d="M64.05,25.79l.09-.35c.08-.05.11-.13,0-.18a.21.21,0,0,0-.3.06.46.46,0,0,1-.28-.38l.73-.5a.64.64,0,0,1,.7.34c-.22.07-.42.24-.3.44s.41.07.63.07c0,.1.09.19.13.29a.42.42,0,0,0-.23.34L65,26c-.22,0-.46-.15-.64.1l-.31,0C64.07,26,64.06,25.89,64.05,25.79Z"/><path class="cls-3" d="M69.92,21.59l.72-.53c.08.37-.24.46-.51.63.39.25.69-.11,1,0-.39.44-.71,1-1.35,1.1C69.31,22.32,69.26,21.91,69.92,21.59Z"/><path class="cls-6" d="M74.3,26.67c-.16,0-.4-.07-.46.08-.31.92-1.06.48-1.64.56,0-.07,0-.18.11-.2A19.2,19.2,0,0,1,75,26.06c0,.1,0,.2.13.26,0,.22-.16.32-.28.45h-.22C74.55,26.67,74.42,26.68,74.3,26.67Z"/><path class="cls-4" d="M75.13,26.32c-.1-.06-.11-.16-.13-.26l.27-.17h1c.4,0,.26-.26.28-.46l0-.14.18,0a.4.4,0,0,0,.3.17v.5c-.35-.09-.32.32-.51.41A1.21,1.21,0,0,1,75.13,26.32Z"/><path class="cls-6" d="M70,17.54l.36,0a4.81,4.81,0,0,1-.58,1.26c0,.1-.14.23-.29.18s-.11-.17-.11-.26a1.87,1.87,0,0,1,.14-1A.77.77,0,0,0,70,17.54Z"/><path class="cls-5" d="M63.63,26.63c.43-.33.66-.27.69.2,0,.2.11.23.24.29a1.1,1.1,0,0,0-.31,1c-.31,0-.66,0-.81-.36l.09-.27a.63.63,0,0,0,.56-.57C64.12,26.54,63.76,26.78,63.63,26.63Z"/><path class="cls-4" d="M64.25,28.08a1.1,1.1,0,0,1,.31-1l.19-.09c.52,0,.36.42.46.68l-.37.43-.14.05A.45.45,0,0,1,64.25,28.08Z"/><path class="cls-5" d="M62.76,28.56l0-.16a3,3,0,0,1,1.46.77l-.12.15c-.22,0-.45.06-.51-.25l-.11-.14C63.1,29.15,62.86,29,62.76,28.56Z"/><path class="cls-5" d="M64.32,24.44l-.73.5c-.41-.09-.88.21-1.22-.21.5-.1,1.15.19,1.42-.54A.44.44,0,0,1,64.32,24.44Z"/><path class="cls-3" d="M63.53,27.45l-.09.27a2.18,2.18,0,0,1-1.2-.64l0,0c.33,0,.53-.3.83-.38l.19,0C63.24,27,62.86,27.4,63.53,27.45Z"/><path class="cls-2" d="M72,27.72c-.08.3.08.46.33.58a.27.27,0,0,1,.13.37c-.11.21-.23,0-.36,0-.53-.08-.48-.54-.62-.88C71.67,27.62,71.86,27.68,72,27.72Z"/><path class="cls-2" d="M78.51,25.3c-.34-.07-.93.26-.86-.52l.11-.14a1.33,1.33,0,0,0,.76.19c.08.13.22.11.35.12v.22C78.74,25.19,78.6,25.17,78.51,25.3Z"/><path class="cls-3" d="M60.33,27.07l-.44-.13c0-.14,0-.31-.15-.35-.37-.1-.38-.36-.34-.66.4.17.64.53,1,.76Z"/><path class="cls-5" d="M75.18,24.9c0-.18-.12-.42.21-.45.12.26.33.27.57.19l.21.19C75.86,25.2,75.53,25.28,75.18,24.9Z"/><path class="cls-5" d="M64.7,28.19l.14-.05c.32.47.54.34.67-.13,0-.14,0-.29.21-.33.07.4.09.83-.37,1A.48.48,0,0,1,64.7,28.19Z"/><path class="cls-5" d="M76.53,25.3l0,.14c-.21.08-.23.28-.28.46h-1A3.11,3.11,0,0,1,76.53,25.3Z"/><path class="cls-5" d="M78.52,24.83a1.33,1.33,0,0,1-.76-.19.64.64,0,0,1,.85-.36A.8.8,0,0,1,78.52,24.83Z"/><path class="cls-5" d="M69.84,27.21c.14-.55.41-.69.84-.25C70.45,27.19,70.22,27.47,69.84,27.21Z"/><path class="cls-5" d="M60.33,27.07l.06-.38c.3.15.61.28.73.63a.25.25,0,0,0-.24.14C60.62,27.44,60.39,27.37,60.33,27.07Z"/><path class="cls-5" d="M63.93,23.22l.33,0c.16.14.35.32.17.51s-.48,0-.71-.12Z"/><path class="cls-5" d="M65.11,22.52c.51.27.15.55,0,.83C64.58,23.08,64.72,22.8,65.11,22.52Z"/><path class="cls-5" d="M65.75,27.43c-.17-.41,0-.82,0-1.24C66.28,26.61,65.92,27,65.75,27.43Z"/><path class="cls-5" d="M71.16,26.81c0-.2-.09-.45.15-.54s.33.15.46.3C71.64,26.84,71.4,26.83,71.16,26.81Z"/><path class="cls-4" d="M78.52,24.83a.8.8,0,0,0,.09-.55c.1-.39.39-.28.65-.24v.15c-.5,0-.36.34-.38.61,0,.05,0,.1,0,.15S78.6,25,78.52,24.83Z"/><path class="cls-5" d="M65.35,25.29c-.22,0-.5.15-.63-.07s.08-.37.3-.44C65.18,24.91,65.38,25,65.35,25.29Z"/><path class="cls-4" d="M79.26,23.19c0-.22,0-.46.34-.33s.17.27.09.45-.12.26-.3.27C79.38,23.44,79.41,23.28,79.26,23.19Z"/><path class="cls-5" d="M72.15,26.45c0-.54.22-.65.65-.34A.63.63,0,0,1,72.15,26.45Z"/><path class="cls-5" d="M73.15,26.07c0-.17-.07-.38.14-.47s.34,0,.41.22C73.6,26.07,73.37,26.05,73.15,26.07Z"/><path class="cls-5" d="M64.33,21.7a.36.36,0,0,1,.43-.27c0,.18,0,.38-.16.47S64.36,21.84,64.33,21.7Z"/><path class="cls-5" d="M65.25,25.92a.42.42,0,0,1,.23-.34c.07.11.17.21.14.36Z"/><path class="cls-3" d="M63.25,20.42c-.28,0-.24-.2-.23-.38C63.25,20.08,63.28,20.23,63.25,20.42Z"/><path class="cls-3" d="M74.15,25.55l.25.07a.19.19,0,0,1-.25.15Z"/><path class="cls-2" d="M73.52,28.35c-.33,0-.74,0-.74-.57,0-.24.19-.24.36-.2a.85.85,0,0,1,.73.66C73.91,28.47,73.7,28.4,73.52,28.35Z"/><path class="cls-2" d="M78.89,24.8c0-.27-.12-.63.38-.61.08.11.21.1.32.13a.39.39,0,0,1,.27.48c-.06.3-.28.14-.44.12S79.07,24.84,78.89,24.8Z"/><path class="cls-2" d="M77,25.94v-.5h.06c.3.06.74.09.64.48S77.25,25.92,77,25.94Z"/><path class="cls-4" d="M74.63,26.78h.22c.1.05.28.06.23.22a.49.49,0,0,1-.53.32A.75.75,0,0,1,74.63,26.78Z"/><path class="cls-5" d="M74.63,26.78a.75.75,0,0,0-.08.53c-.36-.11-.28-.39-.25-.64C74.42,26.68,74.55,26.67,74.63,26.78Z"/><path class="cls-4" d="M78.51,25.3c.09-.13.23-.11.36-.13C78.85,25.48,78.72,25.51,78.51,25.3Z"/><path class="cls-4" d="M61.65,25.62c.42,0,.47.24.44.56-.27,0-.46.41-.65.22a1.73,1.73,0,0,0-.87-.56c-.09,0,0-.24.07-.31a.47.47,0,0,1,.57,0C61.35,25.61,61.41,26,61.65,25.62Z"/><path class="cls-2" d="M63.09,26.68c-.3.08-.5.38-.83.38a1.19,1.19,0,0,1,.16-.8l.21-.08h.53Z"/><path class="cls-2" d="M60,23c.05.23-.11.34-.24.48s-.53,0-.47-.34C59.41,22.58,59.78,23,60,23Z"/><path class="cls-2" d="M74.11,25v.48h-.06c-.27,0-.6.07-.53-.36S73.92,25,74.11,25Z"/><path class="cls-2" d="M69.47,26.38a.2.2,0,0,1,.28-.16c0,.39.13.83-.39,1v0Z"/><path class="cls-2" d="M63.63,29.07c.06.31.29.28.51.25.1.14.35.21.2.45a.46.46,0,0,1-.44.17c-.2,0-.4,0-.32-.29,0,0,0-.1-.06-.15-.53.22-.81-.16-1.19-.4-.23-.14-.44-.18-.51-.49a.32.32,0,0,0-.43-.24c-.11,0-.22,0-.22-.12s.1-.17.21-.17.54-.12.73.18.41.24.65.3c.1.45.34.59.76.37Z"/><path class="cls-5" d="M62.52,18.65c-.43-.13-.11-.48-.22-.71.19,0,.29-.38.51-.11s.06.41-.1.59Z"/><path class="cls-4" d="M63.24,17.73c.34.07.28.36.36.54a.24.24,0,0,1-.2.36c-.21,0-.26-.17-.26-.34S63.08,17.89,63.24,17.73Z"/><path class="cls-5" d="M62.38,24.31l-.13-.2,0-.28.48,0A.4.4,0,0,1,62.38,24.31Z"/><path class="cls-5" d="M61.91,24.37c-.15.31-.39.22-.63.13C61.44,24.22,61.69,24.34,61.91,24.37Z"/><path class="cls-1" d="M74.27,18.83c.17.16.08.26-.07.38a.82.82,0,0,0-.33.67l-.27.17c-.38.06-.4.76-.94.53-.08-.29-.22-.59,0-.89.27,0,.57.22.67-.23A3.4,3.4,0,0,0,74.27,18.83Z"/><path class="cls-4" d="M73.31,19.46c-.1.45-.4.28-.67.23-.31-.41.1-.83,0-1.24l0,0c.45,0,.56.21.48.59C73.1,19.21,73,19.42,73.31,19.46Z"/><path class="cls-4" d="M72.63,18.45l-.17-.07,0,0,.15.08Z"/><path class="cls-3" d="M73.6,20.05l.27-.17C73.85,20,73.74,20.06,73.6,20.05Z"/><path class="cls-3" d="M73.89,21.65a.33.33,0,0,1,.39-.18c0,.21,0,.43-.06.72C74,22,74,21.81,73.89,21.65Z"/><path class="cls-4" d="M70.89,15.42c-.15,0-.29.05-.39-.09s0-.2-.13-.24h0a.73.73,0,0,1,.29-.47A1.08,1.08,0,0,1,70.89,15.42Z"/><path class="cls-4" d="M58.06,26.68c.14,0,.33,0,.27.22s0,.38-.24.36a.36.36,0,0,1-.3-.34C57.76,26.72,57.91,26.69,58.06,26.68Z"/><path class="cls-3" d="M66.52,20c-.17,0-.38,0-.38-.25.19,0,.4-.26.57,0S66.68,19.92,66.52,20Z"/><path class="cls-3" d="M70.37,15.09c.12,0,.14.13.13.24Z"/><path class="cls-1" d="M76,24.64c-.24.08-.45.07-.57-.19,0,0,.12-.05.15-.1a6.55,6.55,0,0,1,.74-1.14c.22,0,.21.13.14.29C76.26,23.88,76.11,24.26,76,24.64Z"/><path class="cls-3" d="M76,22.58l.38,0c-.06.21-.23.2-.39.2Z"/><path class="cls-4" d="M69.47,26.38l-.12.83C68.91,26.87,69.2,26.63,69.47,26.38Z"/><path class="cls-3" d="M70.74,21a.23.23,0,0,1,.29-.2A.22.22,0,0,1,70.74,21Z"/><path class="cls-2" d="M63.53,27.45c-.67-.05-.29-.45-.25-.74l.35-.08c.13.15.49-.09.46.25A.63.63,0,0,1,63.53,27.45Z"/><path class="cls-5" d="M65.21,27.71c-.1-.26.06-.71-.46-.68.12-.31.37-.3.51-.11A.51.51,0,0,1,65.21,27.71Z"/><path class="cls-5" d="M64.4,26.12c.18-.25.42-.14.64-.1C64.86,26.29,64.64,26.23,64.4,26.12Z"/><path class="cls-3" d="M63.16,26.19h-.53a.37.37,0,0,1,.53-.22C63.27,26,63.26,26.11,63.16,26.19Z"/><path class="cls-5" d="M63.87,25.32a.21.21,0,0,1,.3-.06c.08,0,0,.13,0,.18A.26.26,0,0,1,63.87,25.32Z"/><path class="cls-5" d="M64.05,25.79c0,.1,0,.2,0,.3C63.87,26,63.84,25.91,64.05,25.79Z"/><path class="cls-3" d="M76.23,25.9c0-.18.07-.38.28-.46C76.49,25.64,76.63,25.93,76.23,25.9Z"/><path class="cls-3" d="M63.63,29.07l-.11-.14Z"/><path class="cls-7" d="M0,109.87V77H19.73C9.51,51.84,12.43,29.7,33,11.8,44.36,2,58.12-1.47,72.87.56c17.62,2.43,30.82,11.88,39,27.65s7.72,31.87-.32,48.5h19.8v33.16ZM2.42,79c0,9.29.05,17.51,0,25.74,0,2.48,1.26,2.8,3.29,2.8q60.12,0,120.23.07c2.64,0,3.57-1,3.55-3.48-.06-7.11-.1-14.23,0-21.34,0-2.62-1-3.51-3.54-3.47-7,.09-14,0-21,0Q76.15,79.19,47.33,79c-8.73,0-17.45,0-26.18,0ZM70.61,47.67c6.46-8.14,20.66-13.23,32.12-14.47,3.4-.37,5,.71,6,3.87,2.74,9.06,3.47,18.13.49,27.23-1.34,4.08-3,8-4.54,12.07,2.65,1.47,3.5-.46,4.29-2.11,4.61-9.56,6.65-19.54,4.84-30.16C110.18,23,94.27,7,73.63,4s-37.79,4.39-49,22.42c-9.6,15.44-9.9,31.76-1.74,48.15,1.07,2.15,2.37,3,4.6,1.93,0-.41.14-.69.05-.9a13.72,13.72,0,0,0-.94-2C19.23,61.18,19,48.3,23.67,35c.85-2.43,2.2-3.54,4.71-3.05,15.1,2.94,29.42,7.78,41,18.41,2,1.85,2.87,4.93,4.26,7.44-2.6,1-5.13,2.42-7.82,2.88-8.59,1.48-17.27,2.44-25.85,4-3,.53-6.22,1.81-6.08,5.92.09,2.86,3.74,5.87,7.43,6.28a16.8,16.8,0,0,0,1.88,0q16.88,0,33.74,0a34.66,34.66,0,0,0,3.68-.49l-14.55-5.9.2-1.46c1.52-.71,3-1.54,4.57-2.1,3.52-1.24,7.25-2,10.59-3.63,2.06-1,4.87-3.12,4.93-4.82s-2.69-3.75-4.27-5.59a3.84,3.84,0,0,0-1.32-.68Z"/><path class="cls-7" d="M13.68,91.05c-.08-2.44-.17-5.37-.15-7.54h0c-.34,2-.76,4.22-1.27,6.63l-1.79,8.47h-1L7.8,90.29c-.48-2.46-.89-4.71-1.17-6.78h0c0,2.17-.11,5.1-.2,7.72l-.27,7.48H4.89l.7-17.45H7.26L9,89.7c.42,2.15.77,4.07,1,5.88h.05c.25-1.76.61-3.68,1.06-5.88l1.8-8.44h1.67l.63,17.45H13.93Z"/><path class="cls-7" d="M23.32,98.71l-.1-1.58h0A2.62,2.62,0,0,1,21,99c-1.47,0-2.22-1.79-2.22-3.6,0-3,1.56-4.69,4.36-4.67v-.25c0-1-.17-2.91-1.65-2.91a2.66,2.66,0,0,0-1.89.94L19.26,87a3.25,3.25,0,0,1,2.38-1.11c2.22,0,2.76,2.62,2.76,5.13v4.69c0,1.09,0,2.15.12,3Zm-.19-6.4c-1.44,0-3.07.39-3.07,2.83,0,1.47.57,2.17,1.24,2.17.94,0,1.54-1,1.75-2.09a3.71,3.71,0,0,0,.08-.73Z"/><path class="cls-7" d="M28.72,98.71V87.91h-1V86.18h1v-.6a8.89,8.89,0,0,1,.84-4.38A2.07,2.07,0,0,1,31.33,80a2,2,0,0,1,1.12.36l-.18,1.76a1.31,1.31,0,0,0-.84-.28c-1.12,0-1.41,1.71-1.41,3.62v.68h1.76v1.73H30v10.8Z"/><path class="cls-7" d="M41.08,95.29q0,2,.06,3.42H40l-.07-2h0c-.35,1-1.11,2.33-2.4,2.33S35,97.91,35,93.51V86.18h1.32v6.94c0,2.38.42,4,1.61,4,.89,0,1.5-1.07,1.74-2.08a5.17,5.17,0,0,0,.12-1.16V86.18h1.32Z"/><path class="cls-7" d="M45.32,89.57c0-1.3,0-2.36-.06-3.39h1.17l.08,2.07h0c.35-1.19,1.19-2.36,2.39-2.36,1,0,2.57,1,2.57,5.34v7.48H50.18V91.49c0-2-.44-3.71-1.68-3.71-.87,0-1.54,1.06-1.77,2.33a5.63,5.63,0,0,0-.09,1.07v7.53H45.32Z"/><path class="cls-7" d="M61.94,86.18c0,.9-.06,1.91-.06,3.44V96.9c0,2.87-.33,4.64-1,5.72a3,3,0,0,1-2.64,1.51,3.28,3.28,0,0,1-2.41-1l.33-1.74a3,3,0,0,0,2.12,1c1.35,0,2.34-1.22,2.34-4.38v-1.4h0c-.4,1.17-1.18,2.1-2.31,2.1-1.79,0-3.08-2.64-3.08-6.11,0-4.25,1.6-6.66,3.26-6.66,1.26,0,2,1.14,2.27,2.18h0l.06-1.89Zm-1.36,4.94a5.39,5.39,0,0,0-.08-1c-.24-1.32-.88-2.41-1.84-2.41-1.26,0-2.16,1.84-2.16,4.74,0,2.46.72,4.51,2.14,4.51.81,0,1.55-.89,1.83-2.34a6.12,6.12,0,0,0,.11-1.21Z"/><path class="cls-7" d="M72.69,92.34C72.69,97,70.83,99,69.07,99c-2,0-3.47-2.49-3.47-6.45,0-4.2,1.59-6.66,3.59-6.66S72.69,88.51,72.69,92.34Zm-5.76.13c0,2.75.91,4.82,2.2,4.82s2.21-2.05,2.21-4.87c0-2.13-.62-4.82-2.18-4.82S66.93,90.09,66.93,92.47Z"/><path class="cls-7" d="M83.36,98.71l-3.3-17.45h1.41L83,89.85c.44,2.36.81,4.49,1.08,6.53h0c.29-2,.71-4.22,1.15-6.5L87,81.26h1.4L84.8,98.71Z"/><path class="cls-7" d="M95,98.71l-.1-1.58h-.05A2.62,2.62,0,0,1,92.66,99c-1.47,0-2.22-1.79-2.22-3.6,0-3,1.56-4.69,4.37-4.67v-.25c0-1-.17-2.91-1.65-2.91a2.64,2.64,0,0,0-1.89.94L91,87a3.25,3.25,0,0,1,2.38-1.11c2.22,0,2.76,2.62,2.76,5.13v4.69c0,1.09,0,2.15.12,3Zm-.19-6.4c-1.44,0-3.08.39-3.08,2.83,0,1.47.57,2.17,1.25,2.17.94,0,1.54-1,1.75-2.09a3.71,3.71,0,0,0,.08-.73Z"/><path class="cls-7" d="M100.29,80.32h1.32V98.71h-1.32Z"/><path class="cls-7" d="M105.88,80.32h1.32V98.71h-1.32Z"/><path class="cls-7" d="M112.2,92.86c0,3.08,1.17,4.35,2.49,4.35a3.11,3.11,0,0,0,2-.65l.22,1.63a3.78,3.78,0,0,1-2.41.78c-2.23,0-3.57-2.54-3.57-6.32s1.29-6.76,3.41-6.76c2.36,0,3,3.6,3,5.91,0,.46,0,.83,0,1.06Zm3.87-1.63c0-1.45-.35-3.71-1.83-3.71-1.33,0-1.92,2.13-2,3.71Z"/><path class="cls-7" d="M121.51,86.18l1.59,7.4c.16.83.34,1.82.46,2.57h0c.14-.75.29-1.71.47-2.62l1.44-7.35h1.39l-2,8.93c-.94,4.3-1.59,6.5-2.49,7.85a3.51,3.51,0,0,1-1.62,1.48l-.33-1.92a3.55,3.55,0,0,0,1.16-1.11,7.89,7.89,0,0,0,1.11-2.54,2.49,2.49,0,0,0,.1-.55,3.12,3.12,0,0,0-.09-.59l-2.68-11.55Z"/></g></g></svg>