<?xml version="1.0" encoding="utf-8"?>
<!-- Generator: Adobe Illustrator 23.0.1, SVG Export Plug-In . SVG Version: 6.00 Build 0)  -->
<svg version="1.1" id="Layer_1" xmlns="http://www.w3.org/2000/svg" xmlns:xlink="http://www.w3.org/1999/xlink" x="0px" y="0px"
	 viewBox="0 0 346 346" style="enable-background:new 0 0 346 346;" xml:space="preserve">
<style type="text/css">
	.st0{fill:url(#SVGID_1_);}
	.st1{enable-background:new    ;}
	.st2{fill:#DEB591;}
	.st3{fill:#FFFFFF;}
</style>
<title>recharge</title>
<linearGradient id="SVGID_1_" gradientUnits="userSpaceOnUse" x1="59.4618" y1="307.3015" x2="310.7018" y2="14.5416" gradientTransform="matrix(1 0 0 -1 0 348)">
	<stop  offset="0.33" style="stop-color:#6F7899"/>
	<stop  offset="1" style="stop-color:#222E57"/>
</linearGradient>
<circle class="st0" cx="173" cy="173" r="172.5"/>
<path d="M173,1c95,0,172,77,172,172c0,95-77,172-172,172S1,268,1,173c0-45.6,18.1-89.4,50.4-121.6C83.6,19,127.4,0.9,173,1 M173,0
	C77.5,0,0,77.5,0,173s77.5,173,173,173s173-77.5,173-173l0,0C346,77.5,268.5,0,173,0z"/>
<g class="st1">
	<path class="st2" d="M98.4,197.4v-88h11.7V153l43.7-43.7h15.8L132.7,145l38.6,52.4h-15.4l-31.4-44.6l-14.4,14.1v30.5H98.4z"/>
	<path class="st2" d="M176.6,174.3l11.4-1c0.8,5.5,2.8,9.7,5.9,12.5c3.1,2.8,6.8,4.2,11.1,4.2c5.2,0,9.6-2,13.2-5.9
		c3.6-3.9,5.4-9.1,5.4-15.6c0-6.2-1.7-11-5.2-14.6c-3.5-3.6-8-5.3-13.6-5.3c-3.5,0-6.6,0.8-9.4,2.4c-2.8,1.6-5,3.6-6.6,6.2
		l-10.1-1.3l8.5-45.2h43.8v10.3h-35.1l-4.7,23.7c5.3-3.7,10.8-5.5,16.6-5.5c7.7,0,14.2,2.7,19.5,8s7.9,12.2,7.9,20.5
		c0,8-2.3,14.9-7,20.7c-5.6,7.1-13.4,10.7-23.1,10.7c-8,0-14.5-2.2-19.6-6.7S177.3,181.8,176.6,174.3z"/>
</g>
<g>
	<path class="st3" d="M45.2,245.3c1.3-0.3,3.1-0.4,4.8-0.4c2.7,0,4.4,0.5,5.7,1.6c1,0.9,1.5,2.2,1.5,3.7c0,2.6-1.6,4.3-3.7,5v0.1
		c1.5,0.5,2.4,1.9,2.9,3.9c0.6,2.7,1.1,4.6,1.5,5.4h-2.6c-0.3-0.6-0.8-2.2-1.3-4.7c-0.6-2.7-1.6-3.7-3.9-3.8h-2.4v8.5h-2.5V245.3z
		 M47.7,254.2h2.6c2.7,0,4.4-1.5,4.4-3.7c0-2.5-1.8-3.6-4.5-3.7c-1.2,0-2.1,0.1-2.5,0.2V254.2z"/>
	<path class="st3" d="M70.9,255.4h-7.6v7h8.5v2.1h-11V245h10.6v2.1h-8v6.2h7.6V255.4z"/>
	<path class="st3" d="M88.7,264c-0.9,0.5-2.8,0.9-5.2,0.9c-5.5,0-9.7-3.5-9.7-9.9c0-6.1,4.1-10.3,10.2-10.3c2.4,0,4,0.5,4.6,0.9
		l-0.6,2.1c-1-0.5-2.3-0.8-3.9-0.8c-4.6,0-7.6,2.9-7.6,8.1c0,4.8,2.8,7.9,7.5,7.9c1.5,0,3.1-0.3,4.1-0.8L88.7,264z"/>
	<path class="st3" d="M94.4,245v8.2h9.5V245h2.6v19.6h-2.6v-9.2h-9.5v9.2h-2.5V245H94.4z"/>
	<path class="st3" d="M114,258.4l-2,6.1h-2.6L116,245h3l6.7,19.6H123l-2.1-6.1H114z M120.4,256.5l-1.9-5.6c-0.4-1.3-0.7-2.4-1-3.6
		h-0.1c-0.3,1.2-0.6,2.3-1,3.5l-1.9,5.7H120.4z"/>
	<path class="st3" d="M128.5,245.3c1.3-0.3,3.1-0.4,4.8-0.4c2.7,0,4.4,0.5,5.7,1.6c1,0.9,1.5,2.2,1.5,3.7c0,2.6-1.6,4.3-3.7,5v0.1
		c1.5,0.5,2.4,1.9,2.9,3.9c0.6,2.7,1.1,4.6,1.5,5.4h-2.6c-0.3-0.6-0.8-2.2-1.3-4.7c-0.6-2.7-1.6-3.7-3.9-3.8h-2.4v8.5h-2.5V245.3z
		 M131.1,254.2h2.6c2.7,0,4.4-1.5,4.4-3.7c0-2.5-1.8-3.6-4.5-3.7c-1.2,0-2.1,0.1-2.5,0.2V254.2z"/>
	<path class="st3" d="M159.1,263.7c-1.1,0.4-3.4,1.1-6,1.1c-3,0-5.4-0.8-7.3-2.6c-1.7-1.6-2.7-4.2-2.7-7.3c0-5.8,4-10.1,10.6-10.1
		c2.3,0,4,0.5,4.9,0.9l-0.6,2.1c-1-0.5-2.3-0.8-4.3-0.8c-4.8,0-7.9,3-7.9,7.9c0,5,3,7.9,7.5,7.9c1.7,0,2.8-0.2,3.4-0.5v-5.8h-4v-2
		h6.4V263.7z"/>
	<path class="st3" d="M173.1,255.4h-7.6v7h8.5v2.1h-11V245h10.6v2.1h-8v6.2h7.6V255.4z"/>
	<path class="st3" d="M186.6,264.6l-6.4-19.6h2.7l3,9.6c0.8,2.6,1.6,5,2.1,7.3h0.1c0.6-2.3,1.4-4.7,2.2-7.3l3.3-9.7h2.7l-7,19.6
		H186.6z"/>
	<path class="st3" d="M215.2,254.6c0,6.7-4.1,10.3-9.1,10.3c-5.2,0-8.8-4-8.8-9.9c0-6.2,3.9-10.3,9.1-10.3
		C211.8,244.7,215.2,248.8,215.2,254.6z M200.1,254.9c0,4.2,2.3,7.9,6.2,7.9c4,0,6.3-3.7,6.3-8.1c0-3.9-2-7.9-6.2-7.9
		C202.2,246.8,200.1,250.6,200.1,254.9z"/>
	<path class="st3" d="M221,245v11.6c0,4.4,1.9,6.2,4.6,6.2c2.9,0,4.8-1.9,4.8-6.2V245h2.6v11.4c0,6-3.2,8.5-7.4,8.5
		c-4,0-7-2.3-7-8.4V245H221z"/>
	<path class="st3" d="M250.9,264c-0.9,0.5-2.8,0.9-5.2,0.9c-5.5,0-9.7-3.5-9.7-9.9c0-6.1,4.1-10.3,10.2-10.3c2.4,0,4,0.5,4.6,0.9
		l-0.6,2.1c-1-0.5-2.3-0.8-3.9-0.8c-4.6,0-7.6,2.9-7.6,8.1c0,4.8,2.8,7.9,7.5,7.9c1.5,0,3.1-0.3,4.1-0.8L250.9,264z"/>
	<path class="st3" d="M256.6,245v8.2h9.5V245h2.6v19.6h-2.6v-9.2h-9.5v9.2h-2.5V245H256.6z"/>
	<path class="st3" d="M283.1,255.4h-7.6v7h8.5v2.1h-11V245h10.6v2.1h-8v6.2h7.6V255.4z"/>
	<path class="st3" d="M287.3,245.3c1.3-0.3,3.1-0.4,4.8-0.4c2.7,0,4.4,0.5,5.7,1.6c1,0.9,1.5,2.2,1.5,3.7c0,2.6-1.6,4.3-3.7,5v0.1
		c1.5,0.5,2.4,1.9,2.9,3.9c0.6,2.7,1.1,4.6,1.5,5.4h-2.6c-0.3-0.6-0.8-2.2-1.3-4.7c-0.6-2.7-1.6-3.7-3.9-3.8h-2.4v8.5h-2.5V245.3z
		 M289.8,254.2h2.6c2.7,0,4.4-1.5,4.4-3.7c0-2.5-1.8-3.6-4.5-3.7c-1.2,0-2.1,0.1-2.5,0.2V254.2z"/>
</g>
</svg>
