<svg id="Layer_1" data-name="Layer 1" xmlns="http://www.w3.org/2000/svg" viewBox="0 0 346 346"><defs><style>.cls-1{fill:#deb591;}</style></defs><title>sim1</title><circle class="cls-1" cx="173" cy="173" r="173"/><g id="layer1"><path id="path96" d="M876.54,669.52a6.3,6.3,0,0,1-2.51-1,6.71,6.71,0,0,1-2.59-3.84l-.16-.61V463.49l.15-.48a5.31,5.31,0,0,1,.38-.88c.19-.33,5.53-5.86,25.09-26,24.44-25.16,24.85-25.58,25.33-25.82a4.94,4.94,0,0,1,1-.35c.42-.09,7.51-.1,60.28-.08l59.8,0,.63.18a7.06,7.06,0,0,1,1.95.91,6.68,6.68,0,0,1,2.71,4.56c.09.79.09,247.57,0,248.36a6.49,6.49,0,0,1-4.66,5.48l-.63.18H960.14c-67.38,0-83.23,0-83.6-.08Zm164.21-129.77V418H925.62l-23.24,23.93-23.25,23.93V661.5h161.62ZM910.44,626.39a7,7,0,0,1-5.7-5.49l-.15-.62V526.87l.15-.63a7,7,0,0,1,5-5.34l.65-.19h99.14l.63.18a7,7,0,0,1,5,5.32l.15.59,0,46.09c0,30.21,0,46.4,0,47a7,7,0,0,1-5.1,6.38l-.66.18H960.17c-27.48,0-49.51,0-49.72-.05Zm31.11-20.52V593.39H912.44v25h29.11Zm30.42,0V593.39H949.43v25H972Zm35.47,0V593.39H979.85v25h27.59Zm0-32.77V560.92H975.33l-32.11,0-.46-.16a4.16,4.16,0,0,1-2.69-2.88c-.09-.36-.1-2-.1-14.73V528.8H912.44v56.47h95Zm-36.3-32.3v-12H947.82l0,11.9c0,6.55,0,11.95,0,12s2.4.08,11.68.07l11.65,0Zm36.29,0,0-12H979v12c0,6.58,0,12,0,12s6.41,0,14.2,0l14.17,0Z" transform="translate(-787 -371)"/></g></svg>