<?xml version="1.0" encoding="utf-8"?>
<!-- Generator: Adobe Illustrator 18.1.0, SVG Export Plug-In . SVG Version: 6.00 Build 0)  -->
<svg version="1.1" id="Layer_1" xmlns="http://www.w3.org/2000/svg" xmlns:xlink="http://www.w3.org/1999/xlink" x="0px" y="0px"
	 viewBox="0 0 500 500" enable-background="new 0 0 500 500" xml:space="preserve">
<path fill="#010101" d="M441.5,112.3c0-0.1-0.1-0.3-0.1-0.4c33.9-16.5,44.2-56.7,44.2-56.7c-32.7,18.4-53.9,23.4-64.7,24.8
	c-18.5-19.5-44.7-31.7-73.8-31.7C291,48.3,245.5,93.9,245.5,150c0,8,1,15.8,2.7,23.3c-11.6-0.6-23.3-1.8-23.3-1.8v0.1
	C105.1,157.1,35.8,66.1,35.8,66.1c-34.1,73.9,7.4,119.2,30,137.2c-31.4-4.1-44.5-13.6-44.5-13.6c5.2,81.6,64.7,99,92,102.8
	c-23.7,5.3-56.2,0.7-56.2,0.7c19.9,56,64.9,68.4,91.4,70.7C91,422.1,0.1,405.4,0.1,405.4c136.9,88.6,278.4,23,278.4,23
	c157.8-79,170-215.1,169.1-262c0.8-5,1.3-10.1,1.3-15.3c24.1-20.9,51.2-56.1,51.2-56.1C484.4,104.7,460.5,109.7,441.5,112.3z"/>
</svg>
